<svg xmlns="http://www.w3.org/2000/svg" width="112" height="40"><g fill="none" fill-rule="evenodd" transform="translate(1 1)"><rect width="110.5" height="32.8222656" y=".17773438" fill="#FFF" stroke="#C7CACD" rx="6"/><path fill="#393A3F" d="M36.7024955 17.7938146l-1.0843309-3.05883c-.0533954-.1356661-.1088436-.2967672-.1663463-.4833079-.0575026-.1865408-.1150045-.3879171-.1725071-.6041348-.0533954.2162177-.1088436.4186539-.1663463.6073144-.0575027.1886606-.1129508.3529412-.1663462.4928469l-1.07817 3.0461114h2.8340468zM39.6289568 21.266h-1.281482c-.1437567 0-.260814-.0370956-.3511753-.111288-.0903614-.0741924-.1581314-.1664015-.2033121-.2766302l-.6653849-1.8759976h-3.6904217l-.6653849 1.8759976c-.0328587.09751-.0965215.1865395-.1909901.2670912-.0944687.0805517-.2115261.120827-.3511754.120827h-1.293804l3.5055927-9.195568h1.6881061L39.6289568 21.266zm4.6515333-4.8585159c-.1725081-.2162177-.3604158-.3688398-.5637289-.4578706-.203313-.0890309-.4220253-.1335456-.6561434-.1335456-.2300108 0-.437428.0445147-.6222581.1335456-.1848301.0890308-.34296.2236349-.4743948.4038165-.1314347.1801814-.2320629.4091144-.3018876.6868059-.0698247.2776913-.1047365.6051927-.1047365.982514 0 .3815607.0297778.7048226.0893341.9697954.0595563.2649727.1447823.4811872.2556803.64865.1108981.1674627.2464381.2882885.4066241.3624809.1601861.0741923.3388525.111288.5360045.111288.3162648 0 .5852912-.0678321.8070872-.2034981.2217961-.1356661.4312671-.3285633.6284191-.5786975v-2.9252845zm1.5217599-4.5914247V21.266h-.9303067c-.2012593 0-.3285848-.0953888-.3819802-.2861691l-.1293804-.6295721c-.2546547.301009-.547298.5447803-.8779384.7313211-.3306404.1865407-.7156973.2798098-1.1551821.2798098-.3450161 0-.6612761-.0741913-.9487895-.222576-.2875135-.1483848-.5349766-.3635394-.7423971-.6454704-.2074204-.281931-.3676041-.6306299-.4805557-1.0461071-.1129517-.4154773-.1694267-.8903013-.1694267-1.4244863 0-.4833103.0636627-.9326974.1909901-1.3481746.1273274-.4154773.310101-.7758348.5483264-1.0810834.2382255-.3052486.5236809-.5437205.856375-.7154228.3326941-.1717024.706456-.2575522 1.1212968-.2575522.3532308 0 .6551154.0572333.9056627.1717015.2505474.1144682.4743939.2692099.6715459.4642299v-3.4403889H45.80225zm5.4709424 4.5914247c-.172508-.2162177-.3604157-.3688398-.5637288-.4578706-.2033131-.0890309-.4220254-.1335456-.6561435-.1335456-.2300107 0-.437428.0445147-.622258.1335456-.1848301.0890308-.3429601.2236349-.4743948.4038165-.1314348.1801814-.2320629.4091144-.3018876.6868059-.0698247.2776913-.1047365.6051927-.1047365.982514 0 .3815607.0297777.7048226.089334.9697954.0595564.2649727.1447823.4811872.2556804.64865.110898.1674627.246438.2882885.4066241.3624809.160186.0741923.3388524.111288.5360045.111288.3162647 0 .5852911-.0678321.8070872-.2034981.2217961-.1356661.431267-.3285633.628419-.5786975v-2.9252845zm1.5217599-4.5914247V21.266h-.9303066c-.2012594 0-.3285849-.0953888-.3819802-.2861691l-.1293804-.6295721c-.2546548.301009-.547298.5447803-.8779384.7313211-.3306404.1865407-.7156973.2798098-1.1551821.2798098-.3450162 0-.6612762-.0741913-.9487896-.222576-.2875134-.1483848-.5349766-.3635394-.742397-.6454704-.2074205-.281931-.3676041-.6306299-.4805558-1.0461071-.1129517-.4154773-.1694267-.8903013-.1694267-1.4244863 0-.4833103.0636627-.9326974.1909901-1.3481746.1273274-.4154773.310101-.7758348.5483265-1.0810834.2382254-.3052486.5236808-.5437205.856375-.7154228.3326941-.1717024.7064559-.2575522 1.1212967-.2575522.3532308 0 .6551154.0572333.9056628.1717015s.4743938.2692099.6715458.4642299v-3.4403889h1.5217599zm6.6045612 9.5516896c-.5503829 0-.9724052-.1600411-1.2660796-.4801282-.2936744-.3200871-.4405094-.762055-.4405094-1.3259169V15.917817h-.646902c-.0821468 0-.1519703-.0275568-.209473-.0826711-.0575027-.0551144-.0862536-.1377846-.0862536-.2480133v-.6232127l1.0165602-.1717015.3203705-1.7806079c.0205367-.0847913.0595558-.1505036.1170585-.1971388.0575027-.0466352.1314336-.0699524.2217949-.0699524h.7886044v2.0540584h1.6881061v1.1192393h-1.6881061v3.5357785c0 .203499.0482604.3624803.1447828.4769486.0965224.1144682.2289819.1717014.3973826.1717014.0944687 0 .1735338-.0116586.2371974-.0349762.0636637-.0233176.1191119-.0476948.1663462-.0731321.0472344-.0254374.089334-.0498145.1262999-.0731321.036966-.0233176.0739315-.0349762.1108975-.0349762.0451807 0 .0821462.0116586.1108975.0349762.0287513.0233176.0595559.0582935.0924146.1049287l.4559118.7631176c-.221796.1907804-.4764469.3349234-.7639604.4324334-.2875134.0975099-.5852907.1462642-.8933408.1462642zm5.2737914-6.7281542c.4682361 0 .8943657.0784307 1.2784015.2352947.3840357.1568638.7126176.3794376.9857554.6677279.2731378.2882904.4836355.6401689.6314995 1.0556461.1478641.4154772.221795.8797026.221795 1.3926898 0 .5172268-.0739309.9835718-.221795 1.3990491-.147864.4154772-.3583617.7694755-.6314995 1.0620054-.2731378.2925299-.6017197.5172234-.9857554.6740873-.3840358.1568638-.8101654.2352946-1.2784015.2352946-.4723435 0-.9015536-.0784308-1.287643-.2352946-.3860895-.1568639-.7156981-.3815574-.9888359-.6740873-.2731378-.2925299-.4846623-.6465282-.63458-1.0620054-.1499178-.4154773-.2248755-.8818223-.2248755-1.3990491 0-.5129872.0749577-.9772126.2248755-1.3926898.1499177-.4154772.3614422-.7673557.63458-1.0556461.2731378-.2882903.6027464-.5108641.9888359-.6677279.3860894-.156864.8152995-.2352947 1.287643-.2352947zm0 5.5135253c.5257388 0 .9149029-.1822986 1.167504-.546901.2526011-.3646026.3788997-.8987796.3788997-1.6025472s-.1262986-1.2400644-.3788997-1.6089064c-.2526011-.3688421-.6417652-.5532603-1.167504-.5532603-.5339535 0-.9292786.1854781-1.185987.55644-.2567084.3709618-.3850607.9061987-.3850607 1.6057267 0 .699528.1283523 1.2326452.3850607 1.5993675.2567084.3667223.6520335.5500807 1.185987.5500807zm12.2048839-6.2702836c-.06161.1017495-.1262995.1780605-.1940705.2289353-.067771.0508747-.1550506.0763118-.2618413.0763118-.0944687 0-.1961237-.0307365-.3049681-.0922101-.1088444-.0614737-.2320626-.1303656-.3696583-.2066777-.1375957-.0763122-.2946989-.1452041-.4713143-.2066777-.1766154-.0614737-.3778717-.0922101-.6037751-.0922101-.3901969 0-.6807864.0858499-.8717775.2575523-.190991.1717023-.2864851.4038149-.2864851.6963448 0 .1865408.0575018.3412826.1725072.46423.1150053.1229473.2659476.2289348.4528313.3179657.1868838.0890308.400462.1706412.640741.2448335.2402791.0741924.4856887.1568627.7362361.2480133s.495957.198198.7362361.3211453c.240279.1229474.4538573.2798089.640741.4705893.1868837.1907803.337826.422893.4528314.6963449.1150053.2734518.1725072.603073.1725072.9888733 0 .4281959-.0718774.8288286-.215634 1.2019103-.1437567.3730816-.3522008.6984632-.6253386.9761547-.2731378.2776914-.6099342.4960257-1.0103993.6550093s-.8553456.2384743-1.3646551.2384743c-.2792988 0-.5637275-.0296765-.8532945-.0890304-.2895671-.0593539-.5698885-.143084-.8409726-.2511929-.2710841-.1081089-.525735-.2363538-.7639604-.3847385-.2382255-.1483848-.4456427-.3137253-.6222581-.4960265l.6160971-1.0047716c.049288-.0720726.1139776-.1324855.1940706-.1812404.080093-.048755.1673726-.0731321.2618413-.0731321.12322 0 .247465.0402752.3727387.1208269s.2669746.1695812.425107.2670912c.1581324.09751.3398793.1865395.545246.2670912.2053667.0805517.4476958.120827.7269946.120827.3778748 0 .6715448-.0858499.8810189-.2575522.209474-.1717024.3142095-.4440903.3142095-.8171719 0-.2162177-.0575018-.392157-.1725072-.527823-.1150054-.1356661-.2659477-.2480129-.4528314-.3370437-.1868837-.0890309-.3994351-.1674616-.6376605-.2352946-.2382254-.067833-.4826082-.1430842-.7331556-.2257556-.2505474-.0826715-.4949301-.1844196-.7331555-.3052471-.2382255-.1208276-.4507768-.2798088-.6376606-.4769486-.1868837-.1971397-.337826-.4430307-.4528314-.7376804-.1150053-.2946497-.1725071-.6581868-.1725071-1.0906223 0-.3476443.0677699-.6868043.203312-1.0174903.1355421-.3306859.3347448-.6253312.5976142-.8839446s.5852904-.4652891.9672725-.6200331c.3819821-.1547441.8194067-.232115 1.3122869-.232115.2751914 0 .5431909.0222574.8040067.0667728.2608158.0445154.5082789.1102277.742397.1971388.2341181.086911.4528304.1907787.6561435.3116063.2033131.1208276.3850599.2575514.5452459.4101758l-.5175216.9984123zm3.5548804-2.1367295V21.266h-1.909901v-9.519893h1.909901zm4.5899236 6.8362625c-.3819818.0169582-.6961882.0508743-.9426286.101749-.2464404.0508748-.4415357.1144673-.5852923.1907794-.1437565.0763121-.2433583.1632219-.2988071.2607319-.0554487.09751-.0831731.2034975-.0831731.3179657 0 .2246969.0595556.3826183.1786682.4737689.1191126.0911506.2936716.1367253.5236825.1367253.2464405 0 .4620721-.0445148.646902-.1335456.18483-.0890309.3717109-.2331739.5606484-.4324334v-.9157412zm-3.4378219-2.9952369c.3860893-.3518838.8142729-.613673 1.2845625-.7853752.4702896-.1717024.9744573-.2575523 1.5125184-.2575523.3860894 0 .7341811.0646524 1.0442846.1939591.3101036.1293067.5729695.3094854.7886043.5405417.2156348.2310562.3809532.5055638.4959582.8235312.1150051.3179672.1725072.6656062.1725072 1.0429274V21.266h-.8748579c-.1807224 0-.3172892-.025437-.4097046-.0763118-.0924153-.0508747-.1694267-.1568623-.2310364-.3179657l-.1355414-.3624809c-.160186.1399056-.3142087.2628512-.4620728.3688402-.1478641.1059891-.3008597.1960785-.4589924.2702709-.1581326.0741923-.3265307.1293058-.5051996.1653422-.178669.0360363-.3768448.0540541-.5945337.0540541-.2916207 0-.55654-.0392154-.7947653-.1176473-.2382253-.0784319-.4405087-.1939583-.6068557-.3465826-.166347-.1526244-.2946995-.342342-.3850607-.5691586-.0903612-.2268167-.1355414-.4886059-.1355414-.7853753 0-.2374156.0575022-.4780072.1725072-.7217821.1150051-.2437749.314208-.4663487.5976142-.667728.2834063-.2013793.6653826-.3698994 1.1459407-.5055654.4805581-.1356661 1.0863811-.2119771 1.8174865-.2289353v-.2798099c0-.3858002-.0770113-.6645474-.2310364-.8362497-.1540251-.1717024-.3727372-.2575523-.6561435-.2575523-.2259033 0-.4107308.0254371-.5544874.0763118-.1437565.0508748-.272109.108108-.3850607.1717015-.1129516.0635935-.2228212.1208267-.3296119.1717015-.1067907.0508747-.2341161.0763117-.3819802.0763117-.1314346 0-.2423313-.033916-.3326925-.101749s-.164292-.1483835-.2217949-.2416539l-.3450144-.6168535zm11.2129676.64865c-.0575029.0720726-.1129509.1293058-.1663462.1717015-.0533954.0423956-.1293796.0635932-.227956.0635932-.0944687 0-.1796944-.0233173-.2556803-.0699525-.0759858-.0466352-.1612115-.0985691-.2556803-.1558032-.0944687-.0572341-.2053654-.109168-.3326924-.1558032s-.2854573-.0699524-.4743948-.0699524c-.2341177 0-.4364011.0445147-.6068557.1335456-.1704546.0890308-.3111282.2162158-.4220265.3815588-.1108983.165343-.1930435.3677791-.2464389.6073145-.0533953.2395353-.0800926.5098035-.0800926.8108125 0 .631695.118084 1.1171178.3542559 1.4562829.2361719.3391651.5616731.5087451.9765139.5087451.2217958 0 .3973819-.0286166.526763-.0858507.1293812-.0572342.2392508-.1208266.329612-.1907794.0903612-.0699529.1735335-.1346052.2495193-.1939591.0759859-.0593539.1714801-.0890304.2864852-.0890304.1519717 0 .2669752.0572333.3450144.1717015l.5544874.7058838c-.1971519.2331761-.4045691.4228937-.6222581.5691586-.217689.146265-.4405086.2607315-.6684654.343403-.2279567.0826715-.4569373.1399047-.6869483.1717015-.2300109.0317967-.4538569.0476948-.6715458.0476948-.390197 0-.7629318-.076311-1.1182163-.2289353s-.6674375-.3741382-.9364676-.6645483c-.2690302-.2904102-.4826084-.6475881-.640741-1.0715444-.1581327-.4239564-.2371974-.9072594-.2371974-1.4499236 0-.4748312.068797-.9189188.2063925-1.3322763.1375956-.4133574.340906-.7715952.6099362-1.074724.2690301-.3031288.6017194-.5416007.9980773-.7154228.3963579-.1738222.8553455-.2607319 1.3769771-.2607319.5010944 0 .9405728.0826703 1.3184478.2480132.377875.165343.7187787.4069945 1.0227212.7249618l-.5051996.6931652zm3.209866-4.4896756v5.3354644h.2834047c.1191126 0 .209473-.0180179.2710827-.0540542.0616097-.0360363.1232194-.0964492.1848291-.1812404l1.2075504-1.8569197c.0739317-.1059891.1581311-.1854798.2525998-.2384743.0944688-.0529945.2156332-.0794914.3634973-.0794914h1.7497155l-1.6511399 2.3465869c-.1560785.2119781-.340906.3857976-.5544874.5214637.0944687.0720725.1807215.1558027.2587607.2511929.0780393.0953902.1519701.2024376.221795.3211454L100.394616 21.266h-1.7250719c-.1437566 0-.2669752-.0243772-.3696583-.0731321-.1026831-.048755-.1889359-.1346049-.2587608-.2575522l-1.2075504-2.3338683c-.0575029-.105989-.1170584-.1748809-.1786681-.2066777-.0616097-.0317967-.1540235-.0476948-.2772437-.0476948h-.3696583V21.266h-1.9099011v-9.519893h1.9099011z"/><path fill="#E1A749" d="M19.2878079 8.67961575c-.2657786-.8444604-1.1443963-1.3065683-1.96237518-1.03208538-.8181222.27433495-1.26581733 1.18123837-.99989534 2.0255508L20.3526427 22.4623577c.2765302.7888239 1.1021069 1.2321398 1.8945687.9967207.8265801-.2456289 1.3304701-1.1517925 1.0666984-1.9897422-.0100348-.0319614-4.0261019-12.78972045-4.0261019-12.78972045"/><path fill="#40AE86" d="M13.04788767 10.77234457c-.26592198-.84431243-1.1445397-1.30642033-1.96251858-1.03208538-.81812225.27433494-1.26581733 1.18123835-.99989534 2.02569874l4.0271053 12.78927655c.2765302.788824 1.10210687 1.2321398 1.8945687.9965727.82658014-.2454809 1.33047008-1.1516445 1.0666984-1.9897422-.01003484-.0318134-4.0259585-12.78972044-4.0259585-12.78972044"/><path fill="#CC245C" d="M24.3568113 19.2716972c.8181223-.274335 1.265674-1.1812384.9998954-2.02569877-.2657786-.8443125-1.1443963-1.30642037-1.9623753-1.0320854L11.00394392 20.3708126c-.76422107.2852847-1.19371016 1.1374395-.96563368 1.9554134.23796792.8531906 1.11586886 1.3733024 1.92768352 1.1010391.0309645-.0103579 12.39081754-4.1555679 12.39081754-4.1555679"/><path fill="#452546" d="M13.58632593 22.883922c.80651055-.2704877 1.84597164-.6191033 2.9614104-.9931694-.26205137-.8324749-.59979383-1.9055478-.96233652-3.0570444l-2.96155375.9936134.9624799 3.0566004"/><path fill="#B7272E" d="M19.8263896 20.7910452c1.119596-.375398 2.160204-.7244573 2.9614104-.9931694-.2620514-.8324749-.5999372-1.9058438-.9624799-3.05763624l-2.9615538.99361334.9626233 3.0571923"/><path fill="#75C3CA" d="M22.3293534 12.83074454c.8179788-.27433496 1.2656739-1.18123837.9998953-2.02569877-.2657787-.84431243-1.1443964-1.30642033-1.9625186-1.03208537L8.97634256 13.92985998c-.76422108.28528468-1.19371017 1.13743947-.96549033 1.9554134.23782457.85319058 1.1157255 1.37330237 1.9276835 1.10103906.03082116-.0103579 12.39081767-4.1555679 12.39081767-4.1555679"/><path fill="#2B8A74" d="M11.5582945 16.4431173c.80651055-.2704877 1.84625835-.6192512 2.9618405-.99331738-.36368954-1.15578767-.70186202-2.2298963-.9621932-3.0570443l-2.96227055.99376134.96262325 3.05660035"/><path fill="#637F3D" d="M17.79821476 14.35038853c1.11988274-.3755459 2.16063404-.72460532 2.96198384-.9934654-.3638329-1.15593564-.7020053-2.23034022-.9624799-3.05763618l-2.96212716.99376134.96262322 3.05734022"/><path fill="#362D2C" stroke="#FFF" d="M64.8092598 30.5448718c-.0216152-.1217949-.0926366-.224359-.1945368-.2884615-2.3467934-1.4519231-3.7239905-1.7532052-4.7306413-1.9711539-.1296913-.0288461-.2562946-.0544872-.3767221-.0833333l-.435392-3.7147436C59.0565282 23.6666667 58.4080722 23 57.6144855 23c-.7843231 0-1.4173397.6282051-1.4574822 1.4358974 0 .0160257-.0030879.0288462-.0030879.0448718v2.1858975l-.0339668 5.3365384-.5558194-.4455128c-.108076-.0961538-.8615202-.7275641-1.7940618-.7275641-.6299287 0-1.1888361.275641-1.6612827.8141026-.1327791.150641-.1451306.375-.0308788.5416666.0401425.0576923.9973872 1.448718 2.4980997 2.8653847.8893112.8365384 1.7847981 1.5064102 2.6617578 1.9903846 1.1178147.6153846 2.2109263.9326923 3.2515439.9423077h.0494062c1.4204275 0 2.5258907-.4871795 3.2855107-1.4455129 1.6921615-2.1346153 1.0128266-5.8365384.9850356-5.9935897z"/></g></svg>