<svg xmlns="http://www.w3.org/2000/svg" width="270" height="371" xmlns:xlink="http://www.w3.org/1999/xlink">
  <defs>
    <path id="b" d="M150.087655 143.090074c-2.910732 0-5.655532 1.124178-7.736601 3.168095-.02996.023766-.057616.048686-.082967.074991l-4.270456 4.285349-.004609-.003-3.468449 3.48075.004609.003-.479361.480175-3.738089 3.748411c-.020742.019383-.043788.039227-.064529.060224-1.161758 1.162942-2.703778 1.802791-4.34213 1.802791-3.355754 0-6.111616-2.731529-6.146185-6.091601.034569-3.35961 2.790431-6.091601 6.146185-6.091601 1.638352 0 3.180372.640541 4.34213 1.803252.020741.020767.043787.040611.066833.059763l3.235683 3.247469 3.46845-3.480981-3.293299-3.304001c-.02535-.026305-.053006-.052148-.082966-.075684-2.08107-2.043224-4.824486-3.167402-7.736831-3.167402-6.05907 0-11.019068 4.935351-11.057325 11.002263.038257 6.080987 4.998255 11.016337 11.057325 11.016337 2.913267 0 5.655761-1.124408 7.739136-3.168094.027655-.023305.055311-.048456.080661-.074991l4.272761-4.285118v.00023l3.46845-3.480288v-.001154l.47936-.480175 3.735785-3.748411c.023046-.019152.043788-.038996.064529-.059763 1.163832-1.162711 2.705621-1.803252 4.3419-1.803252 3.357827 0 6.111845 2.731991 6.146415 6.091601-.03457 3.360072-2.788588 6.091601-6.146415 6.091601-1.636279 0-3.178068-.639849-4.3419-1.802791-.020741-.020997-.041483-.040841-.064529-.060224l-3.240292-3.249776-3.46845 3.481211 3.295603 3.306309c.027656.026535.055311.052148.082967.075684 2.081069 2.042993 4.825869 3.167401 7.736601 3.167401 6.058839 0 11.020681-4.93535 11.057554-11.002031-.036873-6.081218-4.998715-11.016569-11.057554-11.016569"/>
    <filter id="a" width="200%" height="200%" x="-50%" y="-50%" filterUnits="objectBoundingBox">
      <feOffset in="SourceAlpha" result="shadowOffsetOuter1"/>
      <feGaussianBlur stdDeviation="2" in="shadowOffsetOuter1" result="shadowBlurOuter1"/>
      <feColorMatrix values="0 0 0 0 1 0 0 0 0 1 0 0 0 0 1 0 0 0 1 0" in="shadowBlurOuter1"/>
    </filter>
  </defs>
  <g fill="none" fill-rule="evenodd">
    <path fill="#362D2C" d="M164.712809 105.899752l33.357135 15.166648 10.013854 11.058972.721342 6.534972s11.161289 11.221866 13.535966 19.210196c2.374676 7.988331.896369 22.370687.896369 22.370687s6.666598 12.088148 8.953418 18.241062c2.28682 6.152914 5.990639 21.967395 5.990639 21.967395s7.069929 4.247825 13.271541 12.124814c6.201612 7.876989 8.78251 15.462196 11.216434 21.008548 3.058652 6.969962 6.80177 18.497985 8.1211 27.702642 1.31933 9.204658 0 13.472549 0 13.472549l-14.198053 14.940312s-.037933 25.533747-3.042929 37.785963-9.725453 14.274331-9.725453 14.274331-1.195218.906675-3.143972 1.525719c-1.948754.619043-6.342759 1.349894-8.489307.561042-3.756036-1.380336-11.419547-10.55863-11.419547-10.55863l-2.157178-17.881323 2.09895-.255829 4.002664-13.062056 2.716852-.446159 1.937282-10.52605s-4.964289-5.444326-9.493569-14.890929c-4.529281-9.446603-8.59676-22.83511-11.071207-31.426917-4.955353-17.206045-2.055107-32.223213-2.055107-32.223213l-11.916198-23.644691-19.590921 33.334461s-12.816247 5.591264-18.695779 6.569489c-2.496441.415353-11.578313 3.829384-21.420552 4.749289-6.127025.572663-15.444364.680247-21.604714.492707-6.160349-.18754-6.309436-.492707-6.309436-.492707s-11.400011-23.855889-16.4941107-31.871361c-5.0940997-8.015472-9.7299063-13.164593-9.7299063-13.164593s-4.5151473 10.148781-7.5580003 14.943055c-3.042853 4.794273-10.2262148 13.077488-10.2262148 13.077488s5.7844425 19.087082-1.0943447 40.597345c-6.8787873 21.510262-16.8583891 33.14948-16.8583891 33.14948l1.8605573 12.777077 3.7642718-.039781 3.5498557 14.97392 3.0833462.815499s-1.6192086 14.161581-5.0733753 20.482143c-3.4541668 6.320562-12.1450002 11.024678-12.1450002 11.024678s-3.1019454.965245-6.8743345 0c-3.772389-.965245-5.4443714-2.767114-7.9272345-4.533259-1.3502573-.960484-2.0539382-2.730826-2.7209623-3.460558-.6670241-.729733-1.5416475-3.134541-2.7171946-4.436895-2.6420679-2.927069-3.0071305-6.287826-3.2391919-8.662884-.2320614-2.375058-.4247222-5.388539-.4247222-5.388539l-1.3173239-36.061s-9.22999277-5.030777-12.61356465-13.046624c-3.3835719-8.015846-1.2200488-19.598742-1.2200488-19.598742s6.9691865-24.448622 12.15870085-33.309974c2.5646068-4.379192 4.7201485-9.020037 8.1615168-13.896074 3.4413683-4.876037 2.2944521-4.089517 3.4036005-5.110419 5.0602773-4.65767 8.4564247-4.06138 8.4564247-4.06138s4.384183-15.949177 7.9662817-23.058958c3.5820986-7.10978 12.5388957-17.639897 12.5388957-17.639897s-.6614617-4.261712-.7206577-9.289083c-.059196-5.027371.405285-9.020787 1.2248441-11.5576.7428927-2.299504 2.6756044-6.462003 5.116875-10.160138 2.4412707-3.698136 7.6049253-9.932087 7.6049253-9.932087l6.2824635-13.91425 15.7606192-8.943748 20.0085261-7.497247 55.513248-.888888z"/>
    <path fill="#86BBD2" d="M36.7710693 348.195541l-4.0157684-5.097963s.6382584-3.529358 1.9218828-9.213408c1.2836244-5.688329 3.69735-2.553973 3.69735-2.553973l-.8045752 2.35148s.4861567 3.922936 2.0896211 7.06157c1.6048858 3.138633 3.054827 4.11402 3.054827 4.11402l-5.9433373 3.338274zm13.3295082 10.195925l2.5715133-1.963607 2.400932-16.859639-2.2502518-.586088-4.0100824-14.317075-2.5715133-.390725-1.4371476-1.565752s-1.4513627-10.200203-4.665399-14.324206c-3.2168792-4.10689-3.3675594-8.034104-7.2255401-8.22804-3.8579808-.195363-9.6406873-.584662-11.8838316-.195363-2.2459873.389299-5.4600236 5.093685-5.3008143 11.959892.1606307 6.861929 1.4499411 30.788842 1.4499411 30.788842l2.5729349-1.575734s-2.7378301 4.316513-1.9304119 8.039808c.7974676 3.729 3.0562485 7.057292 3.0562485 7.057292l.316997 2.355758 2.2374582 2.352906v2.154691l11.0877854 6.66514-.3198399-2.348627s2.8899317 2.348627 3.8565592 2.151839c.9566769-.189658 2.403775-2.743631 2.403775-2.743631l.4861568 1.572882 9.1545305-8.045512v-1.955051z"/>
    <path fill="#247BA0" d="M235.467019 344.197049l-5.349145-3.000312s1.306368-.88127 2.750623-3.701905c1.439991-2.822061 1.876395-6.341438 1.876395-6.341438l-.717863-2.121893s2.167804-2.823487 3.323492 2.29444c1.150003 5.110796 1.724293 8.286506 1.724293 8.286506l-3.607795 4.584602zm14.151142-43.376176c-2.02281-.349371-7.222697 0-10.685498.178251-3.465644.175398-3.613481 3.701905-6.503413 7.406662-2.885667 3.701905-4.186349 12.868256-4.186349 12.868256l-1.296418 1.417447-2.318485.343667-3.600687 12.872534-2.028496.529047 2.166383 15.159844 2.311376 1.771096v1.755411l8.234813 7.228412.429297-1.408892s1.303525 2.29444 2.167804 2.469838c.867122.172547 3.464222-1.94079 3.464222-1.94079l-.277195 2.113337 9.956263-5.989215v-1.942217l2.019967-2.119041.29141-2.113337s2.021388-2.993182 2.744938-6.347142c.726392-3.345404-1.731401-7.226986-1.731401-7.226986l2.307112 1.411743s1.158532-21.514115 1.302105-27.684432c.149258-6.164614-2.739252-10.399844-4.767748-10.753493zm-42.305588-129.8715762c-2.5971 19.0385733-6.793401 28.5599989-6.793401 28.5599989s17.187489-3.3525343 21.378104-24.5030188c4.182085-21.1618925-12.132596-33.4982491-12.132596-33.4982491s.079604 10.888963-2.452107 29.441269"/>
    <path fill="#86BBD2" d="M70.5085575 167.896961c-1.3092116-11.6304849-3.8546966-26.0472941-3.8546966-26.0472941-3.9240121 2.6719316-6.2636875 5.9568938-8.4437516 10.5493701-2.1800641 4.5924764-3.5775339 13.4613962-2.200335 23.7173929 2.3796093 17.7209459 19.4707732 23.7489429 19.4707732 23.7489429s-3.6798366-20.330797-4.97199-31.9684118z"/>
    <path fill="#247BA0" d="M213.58428 193.9478819c-5.924858 6.5211142-14.449659 8.1153861-14.449659 8.1153861s-1.587828 2.6438106-2.879981 5.63414c.57429 4.942528 7.650572 19.3965 11.980494 25.03777 4.334187 5.639844 11.266896 4.939676 18.918889.705872 7.654837-4.233805 9.251193-10.396992 9.251193-10.396992s-1.014958-10.057603-5.63629-24.1579259c-4.621333-14.1017489-9.681912-17.4500052-9.681912-17.4500052s-1.584984 5.9892148-7.502734 12.511755"/>
    <path fill="#247BA0" d="M237.605113 221.364226c9.539761 9.522851 4.918428 19.037147-2.30569 22.214283-7.224119 3.17571-18.925997 1.585716-23.5388-1.236345-4.622754-2.817783-4.048463-8.457627-4.622754-9.338897-1.727136 4.755722-1.583563 20.273492 5.05205 41.605079 6.641299 21.328735 17.483163 36.317458 17.483163 36.317458s1.87213-4.755722 4.612803-8.103978c2.737831-3.348256 6.506256-3.707609 11.266896-3.179988 5.344881-3.527933 15.744656-6.521114 20.223837-8.287933 4.46923-1.753984 0 3.353961-.726393 5.47015 4.619911-4.409203 4.908478-4.578897 5.053472-7.224134-.144994-13.400155-6.793401-32.090783-15.158993-49.018871-8.38265-16.932366-17.339591-19.216824-17.339591-19.216824z"/>
    <path fill="#86BBD2" d="M57.0162202 239.601385s6.6484067-5.467297 12.580372-13.401581c5.914907-7.92858 6.4597279-20.3940769 6.4597279-20.3940769s-6.205802-2.5043378-13.8521094-7.9687834c-7.6647871-5.4630195-8.7972068-17.8268204-8.7972068-17.8268204-10.6869193 10.4026958-19.204613 38.0799987-19.204613 38.0799987s3.3234926 9.69825 9.9605273 16.043966c6.6469852 6.342863 12.853302 5.467297 12.853302 5.467297z"/>
    <path fill="#86BBD2" d="M22.5821129 287.007753c19.207456 5.113648 21.9509721 21.685235 21.9509721 21.685235s6.4977266-10.404121 13.2825984-24.153647c6.7934008-13.756657 6.7934008-35.97094 5.9177501-40.904912-.8557496-4.936824-3.6177454-5.290473-3.6177454-5.290473 2.8998823 6.696513-9.2241846 6.345716-17.1704308.884122-7.9505108-5.467297-10.9754861-12.692857-11.7004567-15.162695-.720706-2.474117 4.6156461-2.119042 4.6156461-2.119042s-2.0228101-.879844-5.0477854-1.763966c-3.0420335-.882696-3.0420335.182528-10.3969311 10.754919-7.3634268 10.585224-14.73111804 26.617782-17.4774772 40.723809-2.73640858 14.111731-1.58072018 21.692365 3.75563194 28.216332 5.33635216 6.521114 9.67906806 6.521114 9.67906806 6.521114s-4.91842788-4.93825-9.67906806-11.281114c-4.77059076-6.345716-3.32491412-13.226183 15.88822796-8.109682z"/>
    <path fill="#458FAF" d="M77.3092653 199.8772046s2.6141587 5.636992 3.755632 7.2269859c1.1585314 1.5842899 4.7691692 4.7628515 4.7691692 4.7628515s4.1906143 6.526819 9.0962486 14.28c4.9170064 7.758885 7.2241189 13.394451 10.8347569 17.625403 3.61348 4.230953 7.506999 1.939365 7.506999 1.939365l28.771082-.395315-5.319553-128.616607s-58.9620876 10.2960964-60.1319244 11.2842583c-1.9078911 1.6115969-7.3086472 9.646079-7.3086472 9.646079s3.2002073 19.0476282 4.5648578 30.1618997c.1198776.9768143 31.8152048 12.8215882 31.8152048 12.8215882s17.982722 20.0848609 18.065215 20.7873552c.081799.696589-19.516671-17.4567693-19.516671-17.4567693s-29.1774106-6.062171-29.0480367-4.9038842c1.3185844 11.8053106 2.145667 20.8367897 2.145667 20.8367897z"/>
    <path fill="#247BA0" d="M140.262363 245.340963l24.279344-.333598s5.627761-1.23492 8.669795-3.348257c3.020711-2.117615 6.497726-9.346027 9.95342-16.394762 3.464222-7.051588 7.370534-15.3352425 7.370534-15.3352425l3.892097-3.3596643c4.486288-7.7531812 8.991174-26.3846229 11.011141-42.0777918.148285-1.1499148-27.584338 7.6755738-27.584338 7.6755738s-13.383434 25.4266202-13.312649 24.4574469c.075408-1.0324789 10.299177-28.0123123 10.299177-28.0123123s30.962375-11.5581625 30.998781-12.866203c.320773-11.5251211-.400971-21.6893114-.400971-21.6893114l-9.618588-9.9149402-33.094081-12.46637745s-11.881345 2.07322546-26.820203 4.74771563l4.356541 128.91772362z"/>
    <path fill="#86BBD2" d="M101.704746 183.204931s-17.777878.2952671-16.1560557 9.1844883c1.6218223 8.8892213 19.4418307 51.3778537 19.4418307 51.3778537s-9.1354672-15.573962-14.1733915-23.292153c-5.0379242-7.718191-9.0554885-12.2949101-9.0554885-12.2949101l-4.0965143-6.8724198-2.6137541-22.7197946 26.6533734 4.6169355zm28.072426-65.3750936s-4.474316 1.54691312-11.910375 3.6217378c-7.436059 2.0748247-25.940937 10.1879165-32.4032224 20.4197288-1.451332 2.2979108-4.8942385 6.6525983-1.6444285 20.0222669.781139 3.2135938 2.6123841 11.5665157 2.6123841 11.5665157l-12.1861023-4.5672099-5.1411939-31.5349419 7.4703157-9.4224853 53.2026223-10.1056121z"/>
    <use fill="#000" filter="url(#a)" xlink:href="#b"/>
    <use fill="#FFF" xlink:href="#b"/>
    <path fill="#FFF" d="M150.087655 143.090074c-2.910732 0-5.655532 1.124178-7.736601 3.168095-.02996.023766-.057616.048686-.082967.074991l-4.270456 4.285349-.004609-.003-3.468449 3.48075.004609.003-.479361.480175-3.738089 3.748411c-.020742.019383-.043788.039227-.064529.060224-1.161758 1.162942-2.703778 1.802791-4.34213 1.802791-3.355754 0-6.111616-2.731529-6.146185-6.091601.034569-3.35961 2.790431-6.091601 6.146185-6.091601 1.638352 0 3.180372.640541 4.34213 1.803252.020741.020767.043787.040611.066833.059763l3.235683 3.247469 3.46845-3.480981-3.293299-3.304001c-.02535-.026305-.053006-.052148-.082966-.075684-2.08107-2.043224-4.824486-3.167402-7.736831-3.167402-6.05907 0-11.019068 4.935351-11.057325 11.002263.038257 6.080987 4.998255 11.016337 11.057325 11.016337 2.913267 0 5.655761-1.124408 7.739136-3.168094.027655-.023305.055311-.048456.080661-.074991l4.272761-4.285118v.00023l3.46845-3.480288v-.001154l.47936-.480175 3.735785-3.748411c.023046-.019152.043788-.038996.064529-.059763 1.163832-1.162711 2.705621-1.803252 4.3419-1.803252 3.357827 0 6.111845 2.731991 6.146415 6.091601-.03457 3.360072-2.788588 6.091601-6.146415 6.091601-1.636279 0-3.178068-.639849-4.3419-1.802791-.020741-.020997-.041483-.040841-.064529-.060224l-3.240292-3.249776-3.46845 3.481211 3.295603 3.306309c.027656.026535.055311.052148.082967.075684 2.081069 2.042993 4.825869 3.167401 7.736601 3.167401 6.058839 0 11.020681-4.93535 11.057554-11.002031-.036873-6.081218-4.998715-11.016569-11.057554-11.016569"/>
    <path fill="#86BBD2" stroke="#362D2C" d="M79.72758213 45.6938074s-3.9063889 1.0197498-5.46676106 2.0749801c-1.56037216 1.0552304-3.69633906 4.1217348-3.69633906 4.1217348s-.3642246 10.8140778 0 16.1974254c.36422467 5.3833477 1.9236957 12.2353667 1.9236957 12.2353667s1.79849518 2.4605587 3.0795421 3.449967c1.281047.9894082 5.0032378 2.7927152 5.0032378 2.7927152l-.84337542-40.8721892z"/>
    <path fill="#362D2C" d="M79.82050892 48.1679773s.30497688-1.6428655-.94888992-2.001997c-1.25386684-.3591315-3.07726062.5856256-3.63919722.962894-1.4656311.9839836-4.64128347 4.6435039-4.64128347 4.6435039s-.646318 8.2339228-.4190961 11.5966631c.13469738 1.9934361.52820667 8.0620388 1.1613998 12.3389947.63319317 4.276956 1.20027358 4.8132604 1.20027358 4.8132604s1.52465562 2.4331342 2.69870625 3.308436c1.17405063.8753019 5.1067741 2.5108631 5.1067741 2.5108631s-6.832107-4.2697754-6.89472373-6.1229252c-.0444013-1.3140612-.13318255-7.5997157-.48129416-10.41361-.3481116-2.8138943-.47911504-12.6485935 0-14.4119587.34146594-1.2567526 1.8116923-3.8665925 2.91368074-5.4600283 1.10198842-1.5934358 3.9436502-1.764096 3.9436502-1.764096z"/>
    <path fill="#458FAF" d="M97.699846 12.2223538s25.1253395-5.08830215 37.8367605-5.1531764c12.7114209-.06487426 38.0100145 4.7660834 38.0100145 4.7660834l17.242918 25.4634657s2.913292 25.4079708 1.762277 35.0972445c-1.151015 9.6892737-9.398564 29.185204-9.398564 29.185204s-31.7455703 7.948345-47.6166455 7.938634c-15.8710753-.009712-49.9105795-7.998311-49.9105795-7.998311s-6.38719643-17.4915729-7.20608405-27.2771576c-.81888762-9.7855847 1.62751467-39.3859131 1.62751467-39.3859131L97.699846 12.2223538z"/>
    <path fill="#247BA0" d="M135.6895967 7.06863358c12.7602199-.02579727 37.8570243 4.76662722 37.8570243 4.76662722l17.242918 25.4634657s2.913292 25.4079708 1.762277 35.0972445c-1.151015 9.6892737-9.398564 29.185204-9.398564 29.185204s-31.7455703 7.948345-47.6166455 7.938634c-.0031105-.000002-.0062216-.000004-.0093335-.000007l.1623244-102.4511723z"/>
    <path fill="#86BBD2" d="M113.027954 29.4012215S88.3900364 39.8394707 87.3831209 43.6268917c-.3080766 1.1588022-3.2469198 16.5685196-3.5904544 24.411863-.3435345 7.8433434 5.9872992 33.8996753 5.9872992 33.8996753S85.8483 97.1022644 83.7926665 91.8070754c-2.0556334-5.295189-3.4744011-9.4659361-3.96364237-14.4797-1.18791388-12.1737878 1.31134147-41.9108889 1.31134147-41.9108889s9.3487984-2.526873 13.5391746-3.0596481c4.1903761-.5327751 18.3484138-2.9556169 18.3484138-2.9556169zm8.0194711-17.6966046s-19.0012039 5.1250983-20.0999542 6.5027603c-.1038347.1301925-6.4248725 6.7067674-6.7992054 9.4043454-.374333 2.6975779 4.9254902 3.6233523 4.9254902 3.6233523l-14.8867982 1.2052304 14.148567-18.9905439 22.7119006-1.7451445z"/>
    <path fill="#362D2C" d="M97.699846 12.2223538s25.1253395-5.08830215 37.8367605-5.1531764c12.7114209-.06487426 38.0100145 4.7660834 38.0100145 4.7660834l17.242918 25.4634657s2.913292 25.4079708 1.762277 35.0972445c-1.151015 9.6892737-9.398564 29.185204-9.398564 29.185204s-9.312532 4.867003-21.2206295 7.0959c-11.9080978 2.228898-20.0173753 2.707339-26.7814277 2.7032-15.8710752-.009712-49.5251678-9.858777-49.5251678-9.858777s-6.38719643-17.4915729-7.20608405-27.2771576c-.81888762-9.7855847 1.62751467-39.3859131 1.62751467-39.3859131L97.699846 12.2223538zm1.2698761 2.6120718s23.3659043-4.2170019 35.0041532-3.5870624c11.6382488.6299395 36.5864997 7.4620253 36.5864997 7.4620253l6.927674 10.5490925-9.8117362.029032L185.45828 39.599511s3.251095 25.5256151 2.282816 33.9190299c-.96828 8.3934148-8.773622 22.3457537-8.773622 22.3457537s-13.9645997 6.3763114-21.2961558 8.1087934-20.0729278 1.666919-20.0729278 1.666919-1.7673722-6.206852-2.4471956-6.1870371c-.6798234.0198149-1.1773195 6.2926821-1.1773195 6.2926821s-13.9916009 1.223306-21.8522352-.105645c-7.8606344-1.32895-24.2216833-7.683797-24.2216833-7.683797s-6.4145173-15.2488071-7.0809476-22.6981696c-.370231-4.1384441-.5756952-15.5079146 0-24.5602487.5756951-9.052334 1.6985981-12.9055215 1.6985981-12.9055215s8.4838188-3.2703379 12.9653239-3.9491557c2.0767666-.3145698 14.3843128-3.9830551 27.0413265-5.4426898 3.3036885-.3809887 6.9106506-.6432501 10.4374886-.8228072.9010288-.0458729 4.6022313-.1943654 5.5335889-.2227052 7.6491639-.2327524 13.794374-.1310893 13.794374-.1310893s-11.0439803-1.7392386-26.5481852-1.2580524c-15.5042049.4811861-15.6707308 2.2632784-19.0910877 2.4346541-15.7308456.7881882-20.0403479 3.2717428-20.0403479 3.2717428l12.3596337-16.8377419z"/>
    <path d="M81.1166711 34.7285899s35.8361079-7.9312115 54.0345237-8.1200835c18.1984158-.188872 52.9630892 7.0096102 52.9630892 7.0096102s4.543951 23.0185208 3.762979 34.1899951c-.780971 11.1714744-8.397472 32.1045312-8.397472 32.1045312s-32.524381 10.5560251-48.3285962 10.4700611c-15.8042152-.085964-49.8213488-11.0039269-49.8213488-11.0039269s-6.52763436-20.8305127-7.2275572-31.5706654c-.6999228-10.7401526 3.0143823-33.0795218 3.0143823-33.0795218z"/>
    <path fill="#362D2C" d="M92.5022395 49.4042557s-2.3320541 12.3950695-2.0121798 17.915151c.3198743 5.5200816 1.0099773 14.0047046 1.0099773 14.0047046s28.973762 15.2766358 43.6511578 15.6256568C149.8285906 97.298789 179.438401 83.54909 179.438401 83.54909s3.486294-12.3958551 3.953276-18.2191803c.466983-5.8233253 0-21.1102817 0-21.1102817l-37.7608575-1.0314417s-18.5737831.9738425-20.6593662 1.0314417c-18.8194232.5197508-32.4692138 5.1846277-32.4692138 5.1846277z"/>
    <path fill="#DF4E5C" d="M90.9780179 48.8042615s-.3198743 10.9531477 0 16.4732293c.3198743 5.5200816 1.8474291 15.4079169 1.8474291 15.4079169s27.648352 14.4830951 42.3257478 14.832116c14.6773958.3490209 43.5430522-12.7902 43.5430522-12.7902s3.461118-11.6265076 3.9281-17.4498329c.466983-5.8233253-1.007015-18.9764311-1.007015-18.9764311l-35.3514256-2.0814317s-19.0321232 1.0367452-21.1177063 1.0943443c-18.8194232.5197508-34.1681822 3.4902892-34.1681822 3.4902892z"/>
    <path fill="#362D2C" d="M190.541487 45.2599406s5.926625 1.4536166 7.486997 2.5088469c1.560372 1.0552304 3.696339 4.1217348 3.696339 4.1217348s.364225 10.8140778 0 16.1974254c-.364224 5.3833477-1.923695 12.2353667-1.923695 12.2353667s-1.798496 2.4605587-3.079543 3.449967c-1.281047.9894082-7.677293 3.0862607-7.677293 3.0862607"/>
    <path fill="#FFAAB2" d="M114.0875415 45.4671967L96.6498844 82.6749048l8.3848845 3.9531879 20.364666-41.160896"/>
    <path fill="#362D2C" d="M123.7615539 93.7949596l7.893224 2.5685238 22.5230852-52.6365926h-8.5944326m-6.5611499 51.9132124l21.279125-50.7462881h-3.8710859l-21.2791249 50.7462881m8.4374566 0l22.0203179-50.7462881h-2.5434544l-22.3898038 50.7462881m6.459708-.5483819l22.0032875-50.1979062h-1.5238513l-22.3898038 50.7462881m11.0712463-4.0773803l20.1003242-46.8430997 6.744782.9620876s.323733 15.5057101 0 20.8502035c-.323732 5.3444933-3.872566 16.8591127-3.872566 16.8591127l-22.9725402 8.1716959z"/>
    <g fill="#362D2C" transform="translate(130.602 101.688)">
      <ellipse cx="1.13733509" cy="1.23869781" rx="1.13733509" ry="1.23869781"/>
      <ellipse cx="8.71956905" cy="1.23869781" rx="1.13733509" ry="1.23869781"/>
    </g>
    <g fill="#362D2C">
      <path d="M193.89425633 47.658305l.36874536-45.5052093 2.33983-.35402886-1.1099384 46.48019996"/>
      <path d="M193.0368123.45553132l4.64485874-.33588388-.0225838 1.9955454-4.12098858-.21048185"/>
    </g>
    <g fill="#362D2C">
      <path d="M75.61140633 47.658305l.36874536-45.5052093 2.33983-.35402886-1.1099384 46.48019996"/>
      <path d="M74.7539623.45553132l4.64485874-.33588388-.0225838 1.9955454-4.12098858-.21048185"/>
    </g>
  </g>
</svg>
