<svg xmlns="http://www.w3.org/2000/svg" width="760" height="403" xmlns:xlink="http://www.w3.org/1999/xlink"><defs><path id="b" d="M172.99969 164c-3.056086 0-5.937953 1.17888-8.122946 3.322253-.031456.024923-.060492.051056-.087109.078641l-4.483711 4.493873-.004839-.003145-3.641655 3.650123.00484.003145-.503299.503541-3.924759 3.930808c-.021777.020326-.045974.041135-.067752.063155-1.219772 1.21953-2.838796 1.890514-4.558963 1.890514-3.523331 0-6.416813-2.864445-6.453108-6.388018.036295-3.523088 2.929777-6.388017 6.453108-6.388017 1.720167 0 3.339191.671709 4.558963 1.890998.021778.021777.045975.042587.070172.06267l3.397264 3.405491 3.641654-3.650365-3.457757-3.464773c-.026617-.027585-.055653-.054686-.087109-.079367C153.547691 165.17888 150.667276 164 147.609497 164c-6.361644 0-11.56933 5.175504-11.609497 11.537631.040167 6.376888 5.247853 11.552392 11.609497 11.552392 3.058747 0 5.938194-1.179122 8.125607-3.322253.029036-.024439.058072-.050814.084689-.078641l4.486131-4.493632v.000242l3.641654-3.649639v-.00121l.503298-.50354 3.92234-3.930809c.024197-.020083.045975-.040893.067752-.06267 1.22195-1.219289 2.840732-1.890998 4.558722-1.890998 3.525508 0 6.417054 2.864929 6.45335 6.388017-.036296 3.523573-2.927842 6.388018-6.45335 6.388018-1.71799 0-3.336772-.670984-4.558722-1.890514-.021777-.02202-.043555-.042829-.067752-.063155l-3.402103-3.40791-3.641654 3.650607 3.460176 3.467193c.029036.027827.058073.054686.087109.079367 2.184993 2.142405 5.06686 3.321527 8.122946 3.321527 6.361401 0 11.571023-5.175504 11.609738-11.53739C184.570713 169.175504 179.361091 164 172.99969 164"/><filter id="a" width="200%" height="200%" x="-50%" y="-50%" filterUnits="objectBoundingBox"><feOffset in="SourceAlpha" result="shadowOffsetOuter1"/><feGaussianBlur stdDeviation="2" in="shadowOffsetOuter1" result="shadowBlurOuter1"/><feColorMatrix values="0 0 0 0 1 0 0 0 0 1 0 0 0 0 1 0 0 0 1 0" in="shadowBlurOuter1"/></filter></defs><g fill="none" fill-rule="evenodd"><circle cx="140.304486" cy="140.304486" r="140.304486" fill="#D8D8D8"/><path fill="#C7C2C2" d="M140.304486 280.608972c77.488028 0 140.304486-62.816458 140.304486-140.304486S217.792514 0 140.304486 0c-2.35233 0-6.842759.7600999-6.842759.7600999L90.7539062 272.660156s47.3070248 7.948816 49.5505798 7.948816z"/><path fill="#362D2C" d="M188.355184 125l35.022898 15.904656 10.513917 11.5971.757365 6.852963s11.718653 11.767921 14.211914 20.144963c2.493261 8.377042.941132 23.459242.941132 23.459242s6.999509 12.676356 9.400527 19.12867c2.401017 6.452315 6.289794 23.036326 6.289794 23.036326s7.422982 4.454524 13.934285 12.714807c6.511304 8.260283 9.221084 16.214585 11.776552 22.030822 3.211393 7.309119 7.141431 19.398094 8.526645 29.05065 1.385214 9.652555 0 14.128122 0 14.128122l-14.907064 15.667305s-.039827 26.776217-3.194884 39.624625c-3.155058 12.848407-10.211116 14.968919-10.211116 14.968919s-1.254904.950793-3.300973 1.599959c-2.04607.649166-6.659499 1.41558-8.913239.588342-3.943602-1.447503-11.989808-11.072411-11.989808-11.072411l-2.264901-18.751426 2.203765-.268279 4.202546-13.697654 2.852525-.467868 2.034023-11.038247s-5.212191-5.709247-9.967651-15.61552c-4.75546-9.906274-9.026058-23.946264-11.624072-32.956148-5.20281-18.043289-2.157734-33.791191-2.157734-33.791191l-12.51126-24.795239L199.411133 268s-13.456255 5.863335-19.629395 6.88916c-2.621106.435564-12.156501 4.015721-22.490234 4.980389-6.432992.600528-16.215613.713347-22.683594.516681-6.46798-.196665-6.624512-.516681-6.624512-.516681s-11.969296-25.016714-17.317781-33.422218c-5.348485-8.405505-10.215791-13.805182-10.215791-13.805182s-4.7406208 10.64262-7.9354255 15.670183c-3.1948047 5.027562-10.7368836 13.713837-10.7368836 13.713837s6.0733015 20.015858-1.1489933 42.572808-17.7002504 34.762531-17.7002504 34.762531l1.9534684 13.398808 3.9522491-.041716 3.7271256 15.702548 3.2373201.855182s-1.7000674 14.850682-5.3267257 21.478802c-3.6266582 6.62812-12.7514878 11.561138-12.7514878 11.561138s-3.256848 1.012214-7.2176197 0c-3.9607718-1.012214-5.7162483-2.901762-8.3230987-4.753847-1.4176854-1.007221-2.1565062-2.863708-2.8568396-3.628949-.7003335-.765241-1.6186331-3.287067-2.8528838-4.652793-2.7740055-3.0695-3.1572983-6.593792-3.4009482-9.08442-.2436499-2.490628-.4459316-5.650745-.4459316-5.650745l-1.3831074-37.815724s-9.6909131-5.275575-13.2434512-13.681471c-3.5525381-8.405897-1.2809746-20.552415-1.2809746-20.552415s7.3172083-25.63829 12.7658727-34.930834c2.6926761-4.592284 4.9558596-9.458951 8.5690803-14.572256 3.6132207-5.113304 2.4090307-4.288512 3.5735669-5.359091 5.3129735-4.884313 8.8787152-4.259007 8.8787152-4.259007s4.6031169-16.725263 8.3640956-24.181004c3.7609788-7.455742 13.1650535-18.498253 13.1650535-18.498253s-.6944933-4.469087-.7566453-9.741089c-.0621521-5.272002.4255238-9.459737 1.2860093-12.119991.7799908-2.411399 2.8092168-6.776444 5.3723977-10.65453 2.563181-3.878087 7.9846941-10.415382 7.9846941-10.415382l6.5961924-14.591315 16.5476605-9.37895 21.007697-7.862063L188.355184 125z"/><path fill="#86BBD2" d="M54.0243884 379.085878l-4.2163048-5.346029s.6701312-3.701097 2.0178563-9.661732c1.347725-5.965122 3.8819854-2.678249 3.8819854-2.678249l-.8447535 2.465903s.5104341 4.113825 2.193971 7.405185c1.6850294 3.291359 3.2073767 4.314208 3.2073767 4.314208l-6.2401311 3.500714zm13.9951469 10.692058l2.6999276-2.059156 2.5208279-17.680028-2.3626232-.614606-4.2103348-15.013743-2.6999276-.409738-1.5089147-1.641941s-1.5238398-10.696544-4.8983761-15.02122c-3.3775213-4.306731-3.535726-8.425043-7.5863636-8.628416-4.0506376-.204869-10.1221166-.613111-12.4772773-.204869-2.3581456.408242-5.732682 5.341543-5.5655223 12.541859.1686522 7.19583 1.5223472 32.287024 1.5223472 32.287024l2.7014201-1.652409s-2.8745498 4.526554-2.0268113 8.431025c.837291 3.910452 3.2088691 7.400698 3.2088691 7.400698l.3328269 2.470389 2.3491907 2.467398v2.259538l11.6414788 6.989466-.3358119-2.462912s3.0342469 2.462912 4.0491451 2.256548c1.0044507-.198887 2.5238129-2.877136 2.5238129-2.877136l.5104341 1.649418 9.6116824-8.437005v-2.050184z"/><path fill="#247BA0" d="M262.642664 374.89282l-5.616267-3.146307s1.371605-.924152 2.887982-3.882039c1.5119-2.959382 1.970096-6.650012 1.970096-6.650012l-.753711-2.225144s2.276058-2.960878 3.489459 2.406087c1.20743 5.359487 1.810399 8.689727 1.810399 8.689727l-3.787958 4.807688zm14.85781-45.486856c-2.123823-.366372-7.583378 0-11.219102.186924-3.638708.183933-3.793928 3.882039-6.828175 7.76707-3.029769 3.882039-4.395404 13.494424-4.395404 13.494424l-1.361158 1.48642-2.434263.36039-3.780495 13.49891-2.129794.55479 2.274566 15.897521 2.4268 1.857277v1.840829l8.646037 7.580145.450734-1.477448s1.36862 2.406087 2.276059 2.590021c.910423.180942 3.637215-2.03523 3.637215-2.03523l-.291037 2.216172 10.453451-6.280649v-2.036725l2.120839-2.222154.305962-2.216172s2.122331-3.138829 2.882012-6.655993c.762666-3.508191-1.817861-7.57865-1.817861-7.57865l2.422323 1.480439s1.216385-22.56099 1.367127-29.031555c.156712-6.464583-2.876042-10.905899-5.005836-11.276756zm-44.418211-136.1911146c-2.726793 19.9649883-7.132645 29.9497255-7.132645 29.9497255s18.045785-3.5156683 22.445667-25.6953332c4.390927-22.1916281-12.738464-35.1282706-12.738464-35.1282706s.08358 11.4188189-2.574558 30.8738783"/><path fill="#86BBD2" d="M89.4466333 190.0139871c-1.37459-12.1964231-4.0471895-27.3147528-4.0471895-27.3147528-4.1199663 2.8019475-6.5764787 6.2467557-8.8654091 11.0627014-2.2889305 4.8159458-3.756186 14.1164264-2.3102137 24.8714789 2.4984404 18.5832454 20.4430897 24.9045641 20.4430897 24.9045641s-3.8635974-21.3200915-5.2202774-33.5239916z"/><path fill="#247BA0" d="M239.667161 217.3325433c-6.220729 6.8384309-15.171235 8.51028-15.171235 8.51028s-1.667119 2.7724581-3.023799 5.9082967c.602968 5.183031 8.03262 20.340332 12.578767 26.256105 4.550624 5.914279 11.829533 5.180041 19.863646.74022 8.037098-4.439821 9.713172-10.902909 9.713172-10.902909s-1.065643-10.547004-5.917752-25.3334477c-4.852108-14.7879387-10.165399-18.2991208-10.165399-18.2991208s-1.664134 6.2806494-7.8774 13.1205758"/><path fill="#247BA0" d="M264.887529 246.082964c10.016149 9.986232 5.16404 19.963493-2.420831 23.295228-7.584871 3.330239-19.871109 1.662876-24.714262-1.296506-4.853601-2.954896-4.250633-8.869174-4.853601-9.793327-1.813385 4.987135-1.662642 21.259999 5.304335 43.629578 6.972947 22.36659 18.356224 38.084662 18.356224 38.084662s1.965619-4.987134 4.843153-8.498316c2.87455-3.511183 6.831161-3.888021 11.829534-3.334726 5.61179-3.699602 16.5309-6.838431 21.233759-8.691223 4.692411-1.839333 0 3.517164-.762667 5.736327 4.850617-4.623755 5.153594-4.801706 5.305828-7.57566-.152234-14.052205-7.132644-33.652318-15.915991-51.404125-8.801256-17.756293-18.205481-20.151912-18.205481-20.151912z"/><path fill="#86BBD2" d="M75.2805261 265.207541s6.9804097-5.733335 13.2086008-14.0537c6.2102812-8.314384 6.7823089-21.386451 6.7823089-21.386451s-6.5157025-2.6261986-14.5438454-8.3565435c-8.0475453-5.7288496-9.2365149-18.6942718-9.2365149-18.6942718-11.2205945 10.90889-20.1636382 39.9329673-20.1636382 39.9329673s3.4894586 10.170166 10.4579284 16.824664c6.9789173 6.651507 13.4951604 5.733335 13.4951604 5.733335z"/><path fill="#86BBD2" d="M39.1268747 314.920698c20.1666232 5.362478 23.0471429 22.740437 23.0471429 22.740437s6.8222051-10.910385 13.9458946-25.328962c7.1326444-14.426053 7.1326444-37.721281 6.2132661-42.89534-.8984833-5.17705-3.7984055-5.547907-3.7984055-5.547907 3.0446944 7.022364-9.6848149 6.654498-18.0278746.927143-8.3475373-5.733335-11.5235715-13.31049-12.2847451-15.90051-.7566961-2.594507 4.8461387-2.222154 4.8461387-2.222154s-2.1238236-.922657-5.2998578-1.849801c-3.1939442-.925648-3.1939442.19141-10.9161251 11.278252-7.7311359 11.1003-15.46674926 27.913001-18.350254 42.705426-2.87305725 14.798406-1.65965697 22.747914 3.9431778 29.589336 5.6028348 6.83843 10.1624139 6.83843 10.1624139 6.83843s-5.1640405-5.178545-10.1624139-11.830051c-5.00882085-6.654498-3.49095112-13.869768 16.681642-8.504299z"/><path fill="#458FAF" d="M96.5869497 223.5503862s2.7447025 5.9112875 3.9431778 7.5786508c1.2163852 1.661381 5.0073283 4.994611 5.0073283 4.994611s4.399882 6.844413 9.5504901 14.974863c5.1625481 8.136432 7.5848711 14.046224 11.3758141 18.483054 3.793928 4.43683 7.881878 2.033734 7.881878 2.033734l30.20783-.414551-5.585196-134.87507835S97.0617806 147.122773 95.8335255 148.1590188c-2.0031659 1.6900171-7.6736208 10.1154563-7.6736208 10.1154563s3.3600167 19.9744838 4.7928141 31.6295748c.125864 1.0243459 33.4039672 13.4454854 33.4039672 13.4454854s18.88073 21.0621882 18.967342 21.7988658c.085884.730485-20.491279-18.306214-20.491279-18.306214s-30.6344495-6.3571556-30.4986151-5.1425067c1.3844309 12.3797558 2.2528158 21.8507058 2.2528158 21.8507058z"/><path fill="#247BA0" d="M162.68375 271.226407l25.491787-.349832s5.908797-1.29501 9.102741-3.511182c3.171557-2.220658 6.822205-9.800804 10.450466-17.19253 3.637216-7.394717 7.738599-16.081453 7.738599-16.081453l4.086457-3.5231457c4.710321-8.1304503 9.440168-27.668496 11.561007-44.125293.15569-1.2058695-28.961823 8.0490665-28.961823 8.0490665s-14.051766 26.6638771-13.977447 25.6475438c.079174-1.0827192 10.81349-29.3753886 10.81349-29.3753886s32.508551-12.1205816 32.546775-13.4922712c.336791-12.0859323-.420995-22.7447111-.420995-22.7447111l-10.098914-10.3974002-34.746707-13.07299018s-12.474667 2.1741084-28.15953 4.978739L162.68375 271.226407z"/><path fill="#86BBD2" d="M122.200674 206.0668414s-18.665657.3096348-16.9628453 9.6314047c1.7028116 9.3217699 20.4127013 53.8778949 20.4127013 53.8778949s-9.5916665-16.33179-14.8811708-24.425547c-5.2895043-8.093757-9.5076946-12.893179-9.5076946-12.893179l-4.3010828-7.2068312-2.7442778-23.8253375 27.98437 4.8415951zm29.474284-68.55623913s-4.697751 1.62218576-12.505146 3.79797123c-7.807395 2.1757854-27.2363554 10.6836595-34.0213495 21.4133507-1.5238074 2.409727-5.1386431 6.9763132-1.7265467 20.9965485.8201469 3.369967 2.7428394 12.1293412 2.7428394 12.1293412l-12.7946425-4.7894499-5.3979309-33.069429 7.8433626-9.8809825 55.8594136-10.59735023z"/><use fill="#000" filter="url(#a)" xlink:href="#b"/><use fill="#FFF" xlink:href="#b"/><path fill="#FFF" d="M172.99969 164c-3.056086 0-5.937953 1.17888-8.122946 3.322253-.031456.024923-.060492.051056-.087109.078641l-4.483711 4.493873-.004839-.003145-3.641655 3.650123.00484.003145-.503299.503541-3.924759 3.930808c-.021777.020326-.045974.041135-.067752.063155-1.219772 1.21953-2.838796 1.890514-4.558963 1.890514-3.523331 0-6.416813-2.864445-6.453108-6.388018.036295-3.523088 2.929777-6.388017 6.453108-6.388017 1.720167 0 3.339191.671709 4.558963 1.890998.021778.021777.045975.042587.070172.06267l3.397264 3.405491 3.641654-3.650365-3.457757-3.464773c-.026617-.027585-.055653-.054686-.087109-.079367C153.547691 165.17888 150.667276 164 147.609497 164c-6.361644 0-11.56933 5.175504-11.609497 11.537631.040167 6.376888 5.247853 11.552392 11.609497 11.552392 3.058747 0 5.938194-1.179122 8.125607-3.322253.029036-.024439.058072-.050814.084689-.078641l4.486131-4.493632v.000242l3.641654-3.649639v-.00121l.503298-.50354 3.92234-3.930809c.024197-.020083.045975-.040893.067752-.06267 1.22195-1.219289 2.840732-1.890998 4.558722-1.890998 3.525508 0 6.417054 2.864929 6.45335 6.388017-.036296 3.523573-2.927842 6.388018-6.45335 6.388018-1.71799 0-3.336772-.670984-4.558722-1.890514-.021777-.02202-.043555-.042829-.067752-.063155l-3.402103-3.40791-3.641654 3.650607 3.460176 3.467193c.029036.027827.058073.054686.087109.079367 2.184993 2.142405 5.06686 3.321527 8.122946 3.321527 6.361401 0 11.571023-5.175504 11.609738-11.53739C184.570713 169.175504 179.361091 164 172.99969 164"/><path fill="#86BBD2" stroke="#362D2C" d="M99.1260295 61.8644405s-4.1014632 1.0693707-5.739756 2.1759484c-1.63829283 1.1065778-3.880924 4.3222979-3.880924 4.3222979s-.38241297 11.3402899 0 16.9855907c.38241298 5.6453007 2.01975972 12.8307384 2.01975972 12.8307384s1.888307 2.5802892 3.2333259 3.617842c1.3450189 1.0375527 5.25308558 2.9286084 5.25308558 2.9286084l-.8854912-42.8610258z"/><path fill="#362D2C" d="M99.2235968 64.4590032s.3202066-1.7228071-.9962749-2.0994139c-1.31648147-.3766068-3.23093048.614122-3.82092864 1.0097483-1.53882065 1.0318641-4.87305632 4.8694563-4.87305632 4.8694563s-.67859333 8.6345847-.44002464 12.1609556c.14142377 2.0904364.55458383 8.4543368 1.2193969 12.939409.66481305 4.4850722 1.2602119 5.0474731 1.2602119 5.0474731s1.6007927 2.5515302 2.83347216 3.4694242 5.36179234 2.6330414 5.36179234 2.6330414-7.17328358-4.4775422-7.23902723-6.4208661c-.04661857-1.3780032-.1398333-7.9695171-.50532865-10.9203352-.36549534-2.9508181-.50304074-13.2640728 0-15.1132432.3585178-1.3179061 1.9021632-4.0547405 3.05918187-5.7257128 1.15701863-1.6709722 4.1405852-1.8499367 4.1405852-1.8499367z"/><path fill="#458FAF" d="M117.9957785 26.7642693s26.3800294-5.3358985 39.7262234-5.40392953c13.3461941-.06803103 39.9081291 4.99800053 39.9081291 4.99800053l18.103982 26.7025155s3.058774 26.6443201 1.85028 36.8050729c-1.208494 10.1607528-9.867902 30.6053533-9.867902 30.6053533s-33.3308563 8.335111-49.9944891 8.324927c-16.6636327-.010184-52.4029755-8.387508-52.4029755-8.387508s-6.7061554-18.3427111-7.565936-28.6044614c-.8597806-10.2617504 1.7087883-41.3024277 1.7087883-41.3024277l18.5338998-23.7375426z"/><path fill="#247BA0" d="M157.8826321 21.3597695c13.3974299-.02705257 39.7474989 4.9985708 39.7474989 4.9985708l18.103982 26.7025155s3.058774 26.6443201 1.85028 36.8050729c-1.208494 10.1607528-9.867902 30.6053533-9.867902 30.6053533s-33.3308563 8.335111-49.9944891 8.324927c-.0032657-.000002-.0065323-.000004-.0097995-.000007l.1704304-107.43643656z"/><path fill="#86BBD2" d="M134.0893297 44.779059s-25.868267 10.9461733-26.9254651 14.9178899c-.3234611 1.2151893-3.409062 17.374742-3.7697517 25.5997418-.3606897 8.2249997 6.2862884 35.5492303 6.2862884 35.5492303s-4.1280023-5.071493-6.2862884-10.6243455c-2.1582861-5.5528523-3.6479031-9.9265476-4.1615757-15.1842808-1.24723502-12.7661631 1.3768262-43.9502686 1.3768262-43.9502686s9.8156516-2.6498304 14.2152835-3.2085302c4.3996319-.5586999 19.2646828-3.0994369 19.2646828-3.0994369zm8.4199413-18.5577197s-19.9500714 5.374485-21.1036903 6.8191839c-.1090199.1365277-6.7457128 7.0331181-7.1387389 9.86196-.3930261 2.8288418 5.1714556 3.7996643 5.1714556 3.7996643l-15.6302037 1.2638768 14.8551073-19.9146219 23.84607-1.8300631z"/><path fill="#362D2C" d="M117.9957785 26.7642693s26.3800294-5.3358985 39.7262234-5.40392953c13.3461941-.06803103 39.9081291 4.99800053 39.9081291 4.99800053l18.103982 26.7025155s3.058774 26.6443201 1.85028 36.8050729c-1.208494 10.1607528-9.867902 30.6053533-9.867902 30.6053533s-9.777574 5.10383-22.2803291 7.441186c-12.5027552 2.337355-21.0169875 2.839077-28.118818 2.834737-16.6636328-.010184-51.9983175-10.338504-51.9983175-10.338504s-6.7061554-18.3427111-7.565936-28.6044614c-.8597806-10.2617504 1.7087883-41.3024277 1.7087883-41.3024277l18.5338998-23.7375426zm1.3332902 2.7391749s24.5327328-4.4222009 36.7521636-3.7616085c12.2194308.6605923 38.4135287 7.8251267 38.4135287 7.8251267l7.273623 11.0624103-10.301708.0304446 18.66995 10.8137788s3.413445 26.767689 2.396813 35.5695266c-1.016633 8.8018376-9.211753 23.4330963-9.211753 23.4330963s-14.6619524 6.686582-22.3596261 8.503366c-7.6976737 1.816784-21.0753142 1.748032-21.0753142 1.748032s-1.8556299-6.508878-2.5694018-6.488099c-.7137719.02078-1.2361116 6.598883-1.2361116 6.598883s-14.6903027 1.282833-22.9434754-.110784c-8.2531726-1.393617-25.4312471-8.057691-25.4312471-8.057691s-6.7348405-15.9908122-7.4345505-23.8026599c-.3887192-4.3398204-.6044437-16.2625282 0-25.7553479.6044438-9.4928197 1.7834214-13.533503 1.7834214-13.533503s8.9074773-3.4294721 13.6127763-4.1413212c2.1804746-.3298768 15.1026256-4.1768701 28.3916955-5.7075306 3.4686656-.3995275 7.2557494-.6745505 10.9587079-.8628449.9460236-.048105 4.832054-.2038232 5.809921-.233542 8.031142-.2440781 14.4832268-.137468 14.4832268-.137468s-11.5954861-1.8238698-27.873928-1.3192692c-16.278442.5046006-16.4532838 2.3734093-20.0444438 2.5531241-16.5164004.8265414-21.0411073 3.4309456-21.0411073 3.4309456l12.9768396-17.6570648z"/><path d="M100.5844857 50.3656565s37.6256639-8.3171434 56.7328582-8.5152059c19.1071943-.1980625 55.6079191 7.3506972 55.6079191 7.3506972s4.770863 24.1385996 3.950892 35.8536768c-.81997 11.7150772-8.816818 33.6667344-8.816818 33.6667344s-34.1485592 11.06968-50.7419931 10.979533c-16.5934339-.090146-52.309289-11.539377-52.309289-11.539377s-6.85360636-21.8441229-7.5884814-33.1068904c-.73487503-11.2627674 3.1649122-34.6891681 3.1649122-34.6891681z"/><path fill="#362D2C" d="M112.5386178 65.7554389s-2.4485103 12.9982122-2.1126624 18.7869004c.3358479 5.7886882 1.0604127 14.6861721 1.0604127 14.6861721s30.4206315 16.0199956 45.8309758 16.3859996c15.4103443.366004 46.4987871-14.0527537 46.4987871-14.0527537s3.660389-12.9990361 4.150692-19.1057238c.490302-6.1066877 0-22.1375059 0-22.1375059l-39.646531-1.0816316s-19.5013064 1.0212297-21.6910377 1.0816316c-19.7592131.5450418-34.0906365 5.4369113-34.0906365 5.4369113z"/><path fill="#DF4E5C" d="M110.9382809 65.1262489s-.3358479 11.4861269 0 17.2748151c.3358479 5.7886881 1.9396846 16.1576646 1.9396846 16.1576646s29.0290341 15.187841 44.4393784 15.5538454c15.4103443.366004 45.7174711-13.4125701 45.7174711-13.4125701s3.633957-12.1922522 4.124259-18.2989399c.490303-6.1066878-1.057303-19.8998224-1.057303-19.8998224l-37.1167774-2.182714s-19.9825348 1.0871931-22.1722661 1.1475951c-19.7592131.5450418-35.8744466 3.6601262-35.8744466 3.6601262z"/><path fill="#362D2C" d="M215.473674 61.4094617s6.222584 1.5243495 7.860877 2.6309272c1.638293 1.1065778 3.880924 4.3222979 3.880924 4.3222979s.382413 11.3402899 0 16.9855907c-.382413 5.6453007-2.01976 12.8307384-2.01976 12.8307384s-1.888307 2.5802892-3.233326 3.617842c-1.345019 1.0375527-8.060676 3.2364379-8.060676 3.2364379"/><path fill="#FFAAB2" d="M135.2018301 61.6268029l-18.3084455 39.0182315 8.8036024 4.1455497 21.3816211-43.1637812"/><path fill="#362D2C" d="M145.3589359 112.3061899l8.2873897 2.6935081 23.6478257-55.1978841h-9.0236147m-6.8887956 54.4393041l22.3417455-53.2155974h-4.0643971l-22.3417455 53.2155974m8.8587998 0l23.1199513-53.2155974h-2.6704672l-23.5078885 53.2155974m6.7822878-.575066l23.1020709-52.6405314h-1.599948l-23.5078889 53.2155974m11.6241137-4.2757852l21.1040792-49.1224803 7.081598 1.0089027s.339898 16.2602165 0 21.8647723c-.339899 5.6045559-4.065952 17.6794755-4.065952 17.6794755l-24.1197252 8.5693298z"/><g fill="#362D2C" transform="translate(152.54 120.584)"><ellipse cx="1.19413046" cy="1.29897273" rx="1.19413046" ry="1.29897273"/><ellipse cx="9.15500018" cy="1.29897273" rx="1.19413046" ry="1.29897273"/></g><g fill="#362D2C"><path d="M218.9938713 63.9245302l.3871595-47.71948827 2.45667464-.37125588-1.1653656 48.74192185"/><path d="M218.0936089 14.42487423l4.87681013-.35222796-.02371157 2.09264844-4.32677934-.22072384"/></g><g fill="#362D2C"><path d="M94.8043033 63.9245302l.3871595-47.71948827 2.45667464-.37125588-1.1653656 48.74192185"/><path d="M93.9040409 14.42487423l4.87681013-.35222796-.02371157 2.09264844-4.32677934-.22072384"/></g><path fill="#DF4E5C" d="M301.4707919 139.70348088h50.4770807c6.6320584 0 12.9262786.64477382 18.8828496 1.93434072 5.9565709 1.2895669 11.1761682 3.4388128 15.6589484 6.4478022 4.4827802 3.0089895 8.0443877 7.0618532 10.6849295 12.1587129 2.6405417 5.0968597 3.9607929 11.452487 3.9607929 19.0670725 0 9.2111922-2.3948741 17.0405881-7.1846941 23.4884226-4.7898199 6.4478345-11.7902209 10.5314018-21.0014131 12.2508243L406.109412 270.13331h-34.4496867l-27.2649925-52.1350871h-14.185165V270.13331h-28.7387759V139.70348088zm28.7387759 53.97731622h16.9485089c2.5791338 0 5.3117464-.0921105 8.19792-.2763344 2.8861735-.1842238 5.4959722-.736887 7.8294742-1.6580063 2.333502-.9211192 4.2678234-2.3641843 5.803022-4.3292386 1.5351987-1.9650544 2.3027866-4.7283706 2.3027866-8.2900315 0-3.3160292-.6754773-5.9565314-2.0264522-7.9215857-1.3509748-1.9650543-3.0703716-3.4695265-5.1582418-4.5134616-2.0878702-1.0439351-4.4827443-1.7501159-7.184694-2.1185636-2.7019497-.3684477-5.3424518-.5526688-7.9215856-.5526688h-18.7907381v29.6598905zm87.5058882-13.0798275h27.633438V270.13331h-27.633438v-89.5323404zm47.529514 0h26.528101v12.1587129h.368446c.859711-1.7194225 2.087851-3.4388193 3.684458-5.1582418 1.596607-1.7194226 3.500224-3.2545982 5.710911-4.6055731 2.210686-1.3509748 4.728374-2.4563013 7.553139-3.3160126 2.824766-.8597112 5.895117-1.2895604 9.211147-1.2895604 7.000506 0 12.649952 1.0746229 16.948508 3.2239011 4.298557 2.1492782 7.64524 5.127519 10.04015 8.9348117 2.39491 3.8072928 4.022196 8.2900058 4.881907 13.4482734.859711 5.1582676 1.289561 10.746307 1.289561 16.7642859V270.13331h-27.633439v-43.8450556c0-2.5791338-.09211-5.2503395-.276334-8.0136971-.184224-2.7633577-.736887-5.3117493-1.658007-7.6452513-.921119-2.333502-2.33348-4.2371199-4.237127-5.7109106-1.903646-1.4737908-4.636259-2.2106751-8.19792-2.2106751s-6.447791.6447738-8.658477 1.9343407-3.899379 3.0089637-5.06613 5.1582418c-1.166751 2.1492782-1.934339 4.5748558-2.302787 7.2768055-.368448 2.7019497-.552669 5.5266729-.552669 8.4742544V270.13331H465.24497v-89.5323404zm105.743957-49.740189h27.633439v85.1109901l30.581005-35.3708011h33.897017l-35.555024 40.34482 36.476139 49.1875204h-34.818132l-30.21256-45.318839h-.368445v45.318839h-27.633439V130.8607806zM759.6332 270.13331h-26.528101v-12.158713h-.368446c-.982527 1.719423-2.241371 3.438819-3.77657 5.158242-1.535199 1.719422-3.408113 3.254598-5.618799 4.605573-2.210686 1.350975-4.728374 2.456301-7.55314 3.316013-2.824765.859711-5.895117 1.28956-9.211146 1.28956-7.000506 0-12.680656-1.074623-17.04062-3.223901s-7.737351-5.127519-10.132261-8.934812c-2.39491-3.807293-3.991493-8.290006-4.789796-13.448273-.798303-5.158268-1.197449-10.746307-1.197449-16.7642862v-49.3717432h27.633438v43.8450556c0 2.5791338.092111 5.2503394.276335 8.0136968.184224 2.763358.736887 5.31175 1.658006 7.645252.921119 2.333502 2.333481 4.237119 4.237127 5.71091 1.903647 1.473791 4.636259 2.210675 8.19792 2.210675s6.447792-.644774 8.658478-1.93434c2.210686-1.289567 3.899379-3.008964 5.06613-5.158242 1.166751-2.149278 1.934339-4.574856 2.302787-7.276806.368447-2.701949.552668-5.5266727.552668-8.4742542v-44.5819472H759.6332V270.13331z"/><text fill="#FFFFFF" font-family="PingFangSC-Semibold, PingFang SC" font-size="36" font-weight="500" transform="translate(301 130)"><tspan x="319" y="39">リンク</tspan></text></g></svg>