<svg xmlns="http://www.w3.org/2000/svg" width="155" height="40"><g fill="none" fill-rule="evenodd"><path fill="#FFF" d="M17.12379813 20.04507093l2.91383365-.97598984.94271746 2.8144984-2.91383365.97598983z"/><path fill="#FFF" d="M29.0571429 17.9444444c-2.252381-7.50793646-5.5-9.2539682-13.0079366-7.00158726C8.54126984 13.1952381 6.7952381 16.4428571 9.04761905 23.9507937 11.3 31.4587302 14.547619 33.2047619 22.0555556 30.952381c7.5079365-2.252381 9.2539682-5.5 7.0015873-13.0079366zM25.268254 22.815873l-1.4142857.4714286.4888888 1.4666667c.1920635.5936507-.1222222 1.2396825-.715873 1.431746-.1222222.0349206-.2619047.0698413-.384127.0523809-.4539682-.0174603-.8904761-.3142857-1.047619-.7682539l-.4888889-1.4666667-2.915873.9777778.4888889 1.4666666c.1920635.5936508-.1222222 1.2396826-.715873 1.4317461-.1222223.0349206-.2619048.0698412-.384127.0523809-.4539683-.0174603-.8904762-.3142857-1.0476191-.7682539l-.4888889-1.4666667-1.4142857.4714286c-.1222222.0349206-.2619047.0698412-.384127.0523809-.4539682-.0174603-.8904761-.3142857-1.047619-.7682539-.1920635-.5936508.1222222-1.2396826.715873-1.4317461l1.4142857-.4714286-.9428571-2.8111111-1.4142857.4714286c-.1222223.0349206-.2619048.0698413-.384127.052381-.4539683-.0174604-.8904762-.3142858-1.0476191-.768254-.1920635-.5936508.1222223-1.2396825.7158731-1.431746l1.4142857-.4714286-.4888889-1.4666667c-.1920635-.5936508.1222222-1.2396825.715873-1.431746.5936508-.1920635 1.2396825.1222222 1.431746.715873l.4888889 1.4666667 2.915873-.9777778-.4888889-1.4666667c-.1920634-.5936508.1222223-1.2396825.7158731-1.431746.5936508-.1920635 1.2396825.1222222 1.431746.715873l.4888889 1.4666667 1.4142857-.4714286c.5936508-.1920635 1.2396825.1222222 1.431746.715873.1920635.5936508-.1222222 1.2396826-.715873 1.4317461l-1.4142857.4714285.9428571 2.8111111 1.4142858-.4714285c.5936507-.1920635 1.2396825.1222222 1.431746.715873.1920635.5936508-.1222222 1.2396825-.715873 1.431746z"/><path stroke="#FFF" d="M1 1.17391304h153v37.5652174H1z"/><text fill="#FFF" font-family="Avenir-Heavy, Avenir" font-size="12" font-weight="600" transform="translate(1 1)"><tspan x="33.2191781" y="23.3043478">Sign in with Slack</tspan></text></g></svg>