<svg xmlns="http://www.w3.org/2000/svg" width="348" height="466" xmlns:xlink="http://www.w3.org/1999/xlink"><defs><path id="b" d="M200.01293 189.637717c-3.533282 0-6.865141 1.363171-9.391312 3.841613-.036368.028819-.069938.059037-.100711.090934l-5.183825 5.19639-.005596-.003637-4.210284 4.220738.005595.003637-.581886.582257-4.537596 4.545303c-.025178.023503-.053153.047565-.078331.073027-1.410235 1.410177-3.282064 2.186054-5.270829 2.186054-4.073485 0-7.418773-3.312237-7.460736-7.386641.041963-4.073845 3.387251-7.386641 7.460736-7.386641 1.988765 0 3.860594.776716 5.270829 2.186614.025178.025181.053153.049244.081128.072467l3.927734 3.937863 4.210285-4.221018-3.997672-4.006413c-.030773-.031897-.064344-.063234-.100711-.091773-2.526171-2.477603-5.856352-3.840774-9.391593-3.840774-7.354989 0-13.375836 5.984578-13.422275 13.341281.046439 7.37377 6.067286 13.358348 13.422275 13.358348 3.53636 0 6.865422-1.36345 9.39439-3.841612.03357-.02826.067141-.058758.097914-.090934l5.186623-5.196111v.00028l4.210284-4.220178v-.001399l.581886-.582258 4.534799-4.545302c.027975-.023223.053153-.047286.07833-.072467 1.412754-1.409898 3.284302-2.186614 5.270549-2.186614 4.076003 0 7.419053 3.312796 7.461016 7.386641-.041963 4.074404-3.385013 7.386641-7.461016 7.386641-1.986247 0-3.857795-.775877-5.270549-2.186054-.025177-.025462-.050355-.049524-.07833-.073027l-3.933329-3.940661-4.210285 4.221297 4.00047 4.009212c.03357.032176.067141.063234.100711.091773 2.526171 2.477323 5.85803 3.840773 9.391312 3.840773 7.35471 0 13.377795-5.984578 13.422555-13.341001-.04476-7.37405-6.067845-13.358628-13.422555-13.358628"/><filter id="a" width="200%" height="200%" x="-50%" y="-50%" filterUnits="objectBoundingBox"><feOffset in="SourceAlpha" result="shadowOffsetOuter1"/><feGaussianBlur stdDeviation="2" in="shadowOffsetOuter1" result="shadowBlurOuter1"/><feColorMatrix values="0 0 0 0 1 0 0 0 0 1 0 0 0 0 1 0 0 0 1 0" in="shadowBlurOuter1"/></filter></defs><g fill="none" fill-rule="evenodd"><ellipse cx="162.212495" cy="162.237942" fill="#D8D8D8" rx="162.212495" ry="162.237942"/><path fill="#C7C2C2" d="M162.497016 324.475883c89.587487 0 162.212495-72.636401 162.212495-162.237941C324.709511 72.6364006 252.084503 0 162.497016 0c-2.719638 0-7.91123.87892444-7.91123.87892444L105.209302 315.284449s54.693837 9.191434 57.287714 9.191434z"/><path fill="#362D2C" d="M217.766127 144.540943l40.491589 18.390992 12.155625 13.410046.875625 7.92427s13.548475 13.607571 16.43105 23.294175c2.882574 9.686605 1.088085 27.126568 1.088085 27.126568s8.092457 14.658019 10.868384 22.119008c2.775927 7.460989 7.271921 26.637539 7.271921 26.637539s8.582053 5.150888 16.110072 14.702481c7.528018 9.551592 10.66092 18.749371 13.615415 25.474846 3.712839 8.451736 8.256538 22.430551 9.858048 33.592067 1.60151 11.161515 0 16.336736 0 16.336736l-17.234745 18.116537s-.046046 30.962077-3.693754 45.819045c-3.647707 14.856967-11.805542 17.308973-11.805542 17.308973s-1.450853 1.099429-3.816408 1.850077c-2.365555.750649-7.699354 1.636874-10.305007.680317-4.559381-1.673788-13.86197-12.803335-13.86197-12.803335l-2.618557-21.68279 2.547875-.310218 4.858757-15.838975 3.297935-.541009 2.351629-12.763829s-6.026055-6.601759-11.524062-18.056656c-5.498007-11.454897-10.435442-27.689724-13.439126-38.108102-6.015209-20.863951-2.494656-39.073684-2.494656-39.073684l-14.464846-28.671418-23.781045 40.421178s-15.557397 6.779935-22.694449 7.966125c-3.030382.503655-14.054693 4.643489-26.001999 5.758961-7.437478.694408-18.747619.824863-26.22555.597453-7.477931-.22741-7.658904-.597453-7.658904-.597453s-13.838256-28.927516-20.021886-38.647032c-6.183631-9.719516-11.810948-15.963311-11.810948-15.963311s-5.480851 12.306355-9.174512 18.119864c-3.693662 5.813509-12.4134073 15.857687-12.4134073 15.857687s7.0216243 23.144889-1.3284042 49.228111c-8.3500286 26.083222-20.4640769 40.196872-20.4640769 40.196872l2.258495 15.49341 4.5693778-.048237 4.309102 18.157289 3.7428152.988871s-1.9655264 17.172252-6.1584735 24.83653c-4.1929471 7.664278-14.7425839 13.368462-14.7425839 13.368462s-3.7653924 1.170451-8.3446235 0c-4.5792311-1.17045-6.6088186-3.355387-9.6227187-5.497004-1.6390516-1.164678-2.4932364-3.311384-3.3029243-4.196254-.8096878-.884869-1.8713764-3.800926-3.2983506-5.380153-3.2071559-3.549347-3.6502984-7.624582-3.9319933-10.504564-.2816949-2.879982-.5155622-6.534112-.5155622-6.534112l-1.5990743-43.727364s-11.2041121-6.100292-15.3113654-15.820262c-4.1072534-9.71997-1.480994-23.765323-1.480994-23.765323s8.4597625-29.646261 14.759215-40.391486c3.1131272-5.310184 5.7296982-10.937645 9.9071095-16.8503 4.1774113-5.912655 2.7851916-4.958926 4.1315657-6.196866 6.142574-5.647864 10.2650926-4.924807 10.2650926-4.924807s5.321876-19.339881 9.6701173-27.961161c4.3482412-8.621279 15.2207262-21.390038 15.2207262-21.390038s-.8029357-5.167729-.8747926-11.26389c-.0718569-6.096162.4919677-10.938555 1.4868148-14.01468.9017834-2.788366 3.2478652-7.835788 6.2112771-12.320127 2.9634118-4.484338 9.2314736-12.043592 9.2314736-12.043592l7.6261629-16.87234 19.131515-10.845138 24.287968-9.09112 67.386473-1.07786z"/><path fill="#86BBD2" d="M62.4600901 438.347442l-4.8746646-6.18176s.7747697-4.279681 2.3329368-11.172128c1.5581672-6.897634 4.4881426-3.096932 4.4881426-3.096932l-.9766585 2.851391s.5901364 4.75693 2.5365512 8.562819c1.9481404 3.80589 3.7081963 4.988638 3.7081963 4.988638l-7.2145038 4.047972zm16.1804357 12.363521l3.121511-2.381058 2.9144455-20.443904-2.7315378-.710686-4.8677625-17.360805-3.1215109-.473791-1.744526-1.898621s-1.7617815-12.368709-5.6632388-17.369451c-3.9049084-4.979992-4.0878162-9.742109-8.7709453-9.977275-4.6831292-.236895-11.7026464-.708957-14.4255564-.236895-2.7263612.472061-6.6278184 6.176573-6.4345574 14.502496.1949866 8.320737 1.7600559 37.334376 1.7600559 37.334376l3.1232365-1.910726s-3.3233997 5.234179-2.3432901 9.749026c.9680307 4.521763 3.7099218 8.557631 3.7099218 8.557631l.3847965 2.856579 2.7160079 2.85312v2.612767l13.4592511 8.082111-.3882476-2.847933s3.508033 2.847933 4.6814036 2.609309c1.1612918-.229979 2.9178967-3.326912 2.9178967-3.326912l.5901364 1.907268 11.1125099-9.755942v-2.370684z"/><path fill="#247BA0" d="M303.653312 433.498893l-6.493226-3.638161s1.585776-1.068623 3.33893-4.488909c1.747977-3.422015 2.277719-7.689591 2.277719-7.689591l-.8714-2.572996s2.631456-3.423744 4.034324 2.782225c1.395966 6.197323 2.093087 10.04817 2.093087 10.04817l-4.379434 5.559262zm17.177801-52.597704c-2.455451-.423646-8.767494 0-12.970922.216145-4.206879.212687-4.386335 4.488909-7.894368 8.981277-3.502857 4.488909-5.08173 15.603974-5.08173 15.603974l-1.573698 1.718789-2.814363.416728-4.370806 15.609162-2.462353.64152 2.629731 18.38274 2.805736 2.147621v2.128601l9.996082 8.765131.521115-1.708413s1.582325 2.782224 2.631456 2.994911c1.052583.209229 4.205153-2.353392 4.205153-2.353392l-.336481 2.562621 12.085717-7.262488v-2.355121l2.452-2.569537.353737-2.562621s2.453725-3.629515 3.332027-7.696508c.881754-4.056619-2.101714-8.763402-2.101714-8.763402l2.80056 1.711872s1.406319-26.087894 1.580599-33.569986c.181182-7.475175-3.325125-12.610792-5.787478-13.039624zm-51.353945-157.4815371c-3.152571 23.0860659-8.24638 34.6316921-8.24638 34.6316921s20.863565-4.065264 25.950472-29.7122211c5.076553-25.6607907-14.727527-40.6197868-14.727527-40.6197868s.09663 13.2038948-2.976565 35.7003158"/><path fill="#86BBD2" d="M103.4133833 219.7184067c-1.589227-14.1030599-4.6791426-31.584801-4.6791426-31.584801-4.7632834 3.2399691-7.6033708 7.2232957-10.249709 12.7921064-2.6463382 5.5688108-4.3427001 16.3232126-2.6709447 28.7595761 2.8885624 21.4883185 23.6352001 28.7978338 23.6352001 28.7978338s-4.4668834-24.6530095-6.0354038-38.7647153z"/><path fill="#247BA0" d="M277.090272 251.3076057c-7.192071 7.9074663-17.540165 9.8406713-17.540165 9.8406713s-1.927434 3.20587-3.495954 6.831926c.69712 5.993282 9.286883 23.520086 14.542893 30.360658 5.261187 6.838843 13.67667 5.989823 22.965279.855936 9.29206-5.133887 11.229847-12.607333 11.229847-12.607333s-1.232039-12.195792-6.841786-29.293764c-5.609747-17.0997009-11.752687-21.1597775-11.752687-21.1597775s-1.923983 7.262488-9.107427 15.1716832"/><path fill="#247BA0" d="M306.248704 284.552509c11.580133 11.547356 5.970386 23.084337-2.798834 26.936914-8.76922 3.850847-22.973906 1.92283-28.5733-1.499185-5.611472-3.416828-4.914352-10.255671-5.611472-11.324294-2.096538 5.766761-1.922257 24.583522 6.132587 50.450083 8.061746 25.863103 21.222478 44.038343 21.222478 44.038343s2.272543-5.766761 5.599394-9.826837c3.323399-4.060077 7.897819-4.495826 13.676669-3.856036 6.48805-4.277951 19.112137-7.907466 24.549329-10.0499 5.425114-2.126871 0 4.066994-.881753 6.633073 5.608021-5.346575 5.958307-5.552345 6.134312-8.759944-.176005-16.248952-8.246379-38.913102-18.401212-59.440006-10.175539-20.532091-21.048198-23.302211-21.048198-23.302211z"/><path fill="#86BBD2" d="M87.0352925 306.666785s8.0703741-6.629614 15.2710735-16.250682c7.1799928-9.61415 7.8413405-24.729741 7.8413405-24.729741s-7.5331046-3.036746-16.8148113-9.662902c-9.3041388-6.6244265-10.6787615-21.6167013-10.6787615-21.6167013-12.9726474 12.6142499-23.3121132 46.1755903-23.3121132 46.1755903s4.0343242 11.760043 12.090894 19.454822c8.0686485 7.69132 15.602378 6.629614 15.602378 6.629614z"/><path fill="#86BBD2" d="M45.2363867 364.151477c23.3155643 6.200781 26.6458662 26.295394 26.6458662 26.295394s7.8874663-12.615979 16.1234927-29.288576c8.2463796-16.681244 8.2463796-43.618157 7.1834439-49.601064-1.0387781-5.986365-4.3915121-6.415198-4.3915121-6.415198 3.5201119 8.120154-11.1970616 7.694779-20.8428583 1.072082-9.6509733-6.629614-13.3229331-15.391287-14.2029611-18.386199-.8748513-3.000099 5.6028447-2.569537 5.6028447-2.569537s-2.4554505-1.066894-6.1274103-2.138976c-3.6926664-1.070352-3.6926664.221333-12.6206363 13.041354-8.9383232 12.835582-17.88182308 32.276571-21.21557606 49.381459-3.32167417 17.111805-1.91880607 26.30404 4.55888994 34.214964 6.47769602 7.907466 11.74923602 7.907466 11.74923602 7.907466s-5.9703857-5.988094-11.74923602-13.679414c-5.7909291-7.694779-4.0360498-16.037995 19.28641672-9.833755z"/><path fill="#458FAF" d="M111.6686328 258.497469s3.1732773 6.835384 4.5588899 8.763402c1.4063192 1.921101 5.7892033 5.775407 5.7892033 5.775407s5.086907 7.914383 11.041763 17.315846c5.96866 9.40838 8.76922 16.242036 13.152104 21.372465 4.386335 5.130429 9.112603 2.351663 9.112603 2.351663l34.924667-.479357-6.457303-155.9597685s-71.5729532 12.484988-72.9929957 13.6832276c-2.3159526 1.9542133-8.8718274 11.6967807-8.8718274 11.6967807s3.8846705 23.0970458 5.5411938 36.5741485c.1455171 1.1844794 38.6198693 15.5473851 38.6198693 15.5473851s21.828884 24.3547886 21.92902 25.2066286c.099294.84468-23.690914-21.1679791-23.690914-21.1679791s-35.417902-7.3509541-35.2608575-5.9464221c1.6006044 14.3150526 2.6045843 25.2665732 2.6045843 25.2665732z"/><path fill="#247BA0" d="M188.086196 313.626564l29.472233-.404519s6.831432-1.497456 10.524099-4.060077c3.666783-2.567808 7.887466-11.332939 12.082266-19.880196 4.205153-8.550715 8.946951-18.595428 8.946951-18.595428l4.724542-4.07391c5.44582-9.401463 10.914215-31.9938436 13.366214-51.0232912.18-1.3943801-33.484101 9.3073573-33.484101 9.3073573s-16.245896 30.8321759-16.159971 29.6569609c.091536-1.251978 12.501974-33.9675706 12.501974-33.9675706s37.584637-14.0153623 37.628829-15.6014847c.38938-13.9752964-.486731-26.300336-.486731-26.300336l-11.67582-12.0228002-40.172273-15.1166586s-14.422539 2.51398144-32.556533 5.75705305l5.288321 156.32490005z"/><path fill="#86BBD2" d="M141.281842 238.2807643s-21.580228.3580393-19.611529 11.1370585c1.9687 10.7790192 23.600068 62.3004942 23.600068 62.3004942s-11.089369-18.884899-17.20481-28.243933c-6.11544-9.359035-10.9922844-14.908738-10.9922844-14.908738l-4.9726804-8.333457-3.1727864-27.5498945 32.3540222 5.5984698zm34.076582-79.27346757s-5.431288 1.87577807-14.457778 4.39169867c-9.02649 2.5159207-31.489208 12.3538098-39.333653 24.7608473-1.761744 2.7864337-5.9410225 8.0669031-1.9961402 24.2788873.9482092 3.8967857 3.1711232 14.0254914 3.1711232 14.0254914l-14.792477-5.5381729-6.2407971-38.2390916 9.0680736-11.4256523 64.5816485-12.25400787z"/><use fill="#000" filter="url(#a)" xlink:href="#b"/><use fill="#FFF" xlink:href="#b"/><path fill="#FFF" d="M200.01293 189.637717c-3.533282 0-6.865141 1.363171-9.391312 3.841613-.036368.028819-.069938.059037-.100711.090934l-5.183825 5.19639-.005596-.003637-4.210284 4.220738.005595.003637-.581886.582257-4.537596 4.545303c-.025178.023503-.053153.047565-.078331.073027-1.410235 1.410177-3.282064 2.186054-5.270829 2.186054-4.073485 0-7.418773-3.312237-7.460736-7.386641.041963-4.073845 3.387251-7.386641 7.460736-7.386641 1.988765 0 3.860594.776716 5.270829 2.186614.025178.025181.053153.049244.081128.072467l3.927734 3.937863 4.210285-4.221018-3.997672-4.006413c-.030773-.031897-.064344-.063234-.100711-.091773-2.526171-2.477603-5.856352-3.840774-9.391593-3.840774-7.354989 0-13.375836 5.984578-13.422275 13.341281.046439 7.37377 6.067286 13.358348 13.422275 13.358348 3.53636 0 6.865422-1.36345 9.39439-3.841612.03357-.02826.067141-.058758.097914-.090934l5.186623-5.196111v.00028l4.210284-4.220178v-.001399l.581886-.582258 4.534799-4.545302c.027975-.023223.053153-.047286.07833-.072467 1.412754-1.409898 3.284302-2.186614 5.270549-2.186614 4.076003 0 7.419053 3.312796 7.461016 7.386641-.041963 4.074404-3.385013 7.386641-7.461016 7.386641-1.986247 0-3.857795-.775877-5.270549-2.186054-.025177-.025462-.050355-.049524-.07833-.073027l-3.933329-3.940661-4.210285 4.221297 4.00047 4.009212c.03357.032176.067141.063234.100711.091773 2.526171 2.477323 5.85803 3.840773 9.391312 3.840773 7.35471 0 13.377795-5.984578 13.422555-13.341001-.04476-7.37405-6.067845-13.358628-13.422555-13.358628"/><path fill="#86BBD2" stroke="#362D2C" d="M114.6041803 71.5355569s-4.74189097 1.2365428-6.63599696 2.5161091c-1.894106 1.2795663-4.48691544 4.9979921-4.48691544 4.9979921s-.4421253 13.1130895 0 19.6409063c.4421253 6.5278168 2.33513748 14.8365362 2.33513748 14.8365362s2.18315892 2.9836594 3.73819738 4.1834104c1.55503846 1.199751 6.07333484 3.386431 6.07333484 3.386431l-1.0237573-49.5613851z"/><path fill="#362D2C" d="M114.7169823 74.5357212s.3702057-1.9921293-1.1518393-2.4276102c-1.52204506-.4354808-3.73542797.7101263-4.4175521 1.1675999-1.7791016 1.1931728-5.63396544 5.6306864-5.63396544 5.6306864s-.78455308 9.9844081-.5087328 14.062048c.16350655 2.4172292.64117998 9.7759825 1.40980106 14.9621949.76862108 5.1862125 1.45698916 5.8365322 1.45698916 5.8365322s1.85075038 2.9504046 3.27590803 4.0117906c1.4251577 1.061386 6.1990157 3.044659 6.1990157 3.044659s-8.29336432-5.177506-8.3693736-7.4246249c-.05389787-1.593423-.16166774-9.215372-.5842338-12.6274843-.42256603-3.4121123-.58158862-15.3376128 0-17.4758594.41449898-1.5239311 2.1991787-4.6886082 3.53686144-6.6207994s4.7871217-2.1391328 4.7871217-2.1391328z"/><path fill="#458FAF" d="M136.4203685 30.9482621s30.4991702-6.17004634 45.9293215-6.2487125c15.4301513-.07866615 46.139631 5.7793257 46.139631 5.7793257l20.930849 30.8768541s3.53639 30.8095612 2.139195 42.5587196c-1.397196 11.7491583-11.408738 35.389813-11.408738 35.389813s-38.5353417 9.638118-57.800937 9.626342c-19.2655954-.011776-60.5855-9.698706-60.5855-9.698706s-7.7532959-21.210182-8.747328-33.0761268c-.99403202-11.8659445 1.975609-47.7591348 1.975609-47.7591348l21.4278975-27.4483743z"/><path fill="#247BA0" d="M182.5354019 24.69889018c15.4893874-.03128162 45.9539191 5.77998512 45.9539191 5.77998512l20.930849 30.8768541s3.53639 30.8095612 2.139195 42.5587196c-1.397196 11.7491583-11.408738 35.389813-11.408738 35.389813s-38.5353417 9.638118-57.800937 9.626342c-.0037757-.000002-.0075523-.000005-.0113297-.000008l.1970425-124.2317105z"/><path fill="#86BBD2" d="M155.0268662 51.7792597s-29.907498 12.6573617-31.1297735 17.2499669c-.3739683 1.4051569-3.941374 20.0908928-4.358384 29.6016866-.41701 9.5107937 7.2678682 41.1065538 7.2678682 41.1065538s-4.772574-5.864307-7.2678682-12.285223c-2.4952943-6.420916-4.2175092-11.4783404-4.8113899-17.5580021-1.441986-14.761866 1.5918123-50.8209061 1.5918123-50.8209061s11.3483281-3.0640719 16.4349457-3.7101119c5.0866176-.64604 22.2727894-3.5839642 22.2727894-3.5839642zm9.7346831-21.4588025s-23.0651989 6.2146651-24.398951 7.8852103c-.1260429.1578707-7.7990301 8.1325881-8.2534257 11.4036558-.4543956 3.2710678 5.9789586 4.3936566 5.9789586 4.3936566l-18.0708002 1.4614555 17.1746755-23.0278258 27.5695428-2.1161524z"/><path fill="#362D2C" d="M136.4203685 30.9482621s30.4991702-6.17004634 45.9293215-6.2487125c15.4301513-.07866615 46.139631 5.7793257 46.139631 5.7793257l20.930849 30.8768541s3.53639 30.8095612 2.139195 42.5587196c-1.397196 11.7491583-11.408738 35.389813-11.408738 35.389813s-11.304304 5.901699-25.759317 8.604448c-14.4550125 2.702749-24.2987097 3.282904-32.5094639 3.277885-19.2655954-.011776-60.1176561-11.954697-60.1176561-11.954697s-7.7532959-21.210182-8.747328-33.0761268c-.99403202-11.8659445 1.975609-47.7591348 1.975609-47.7591348l21.4278975-27.4483743zm1.5414784 3.1673834s28.3634253-5.1135126 42.4908735-4.3496515c14.1274482.7638611 44.4116546 9.0484095 44.4116546 9.0484095l8.409371 12.7917698-11.91028.035204 21.585191 12.5042702s3.946442 30.9522161 2.771066 41.1300233c-1.175376 10.1778073-10.650132 27.0963342-10.650132 27.0963342s-16.951361 7.731879-25.850997 9.832677c-8.8996359 2.100797-24.3661438 2.021297-24.3661438 2.021297s-2.1453794-7.526394-2.9706041-7.502367c-.8252246.024028-1.4291257 7.63047-1.4291257 7.63047s-16.9841373 1.483375-26.5260113-.128103c-9.5418741-1.611478-29.4022392-9.317329-29.4022392-9.317329s-7.7864601-18.490617-8.5954272-27.523672c-.4494163-5.0182538-.6988253-18.8048092 0-29.7816181.6988253-10.9768089 2.0618959-15.6491622 2.0618959-15.6491622s10.2983458-3.9655932 15.7383592-4.7887239c2.5209474-.3814456 17.4608429-4.8298299 32.8249503-6.5997747 4.0102844-.4619847 8.3887069-.7800014 12.6698683-.9977314 1.0937416-.0556251 5.5865607-.2356864 6.7171179-.270051 9.2851741-.2822343 16.7447274-.1589581 16.7447274-.1589581s-13.4060769-2.1089909-32.2263354-1.5255073c-18.8202585.5834836-19.0224011 2.7444385-23.1743071 2.9522478-19.0953733.9557525-24.3265958 3.9672968-24.3265958 3.9672968l15.0031235-20.4173504z"/><path d="M116.2903689 58.2391963s43.5007675-9.6173421 65.5914772-9.8463672c22.0907099-.2290252 64.2908829 8.4998136 64.2908829 8.4998136s5.515815 27.9121277 4.567809 41.4585941c-.948006 13.5464664-10.193531 38.9297722-10.193531 38.9297722s-39.4807257 12.800176-58.6651609 12.695937c-19.1844352-.104239-60.4771846-13.343299-60.4771846-13.343299s-7.9237708-25.258962-8.77339376-38.2824102c-.84962297-13.0234482 3.65910116-40.1120405 3.65910116-40.1120405z"/><path fill="#362D2C" d="M130.1110931 76.0348255s-2.8308359 15.0301908-2.4425466 21.7238104c.3882893 6.6936196 1.2259921 16.9820253 1.2259921 16.9820253s35.1706968 18.5243618 52.9873075 18.9475828c17.8166107.423221 53.7593949-16.249586 53.7593949-16.249586s4.231945-15.0311438 4.798806-22.092475c.566862-7.0613311 0-25.5982077 0-25.5982077l-45.8371844-1.2507204s-22.5463609 1.1808759-25.0780104 1.2507204c-22.8445388.6302468-39.4137591 6.2868502-39.4137591 6.2868502z"/><path fill="#DF4E5C" d="M128.2608696 75.3072758s-.3882893 13.2817249 0 19.9753444c.3882893 6.6936196 2.2425589 18.6835527 2.2425589 18.6835527s33.5618069 17.5621191 51.3784176 17.9853401c17.8166107.42322 52.8560799-15.509324 52.8560799-15.509324s4.201385-14.0982376 4.768246-21.1595688c.566861-7.0613311-1.222397-23.0107127-1.222397-23.0107127l-42.9124203-2.5239322s-23.1027312 1.2571513-25.6343807 1.3269957c-22.8445388.6302469-41.4761044 4.2323048-41.4761044 4.2323048z"/><path fill="#362D2C" d="M249.119065 71.0094524s7.194217 1.7626473 9.088323 3.0422136c1.894106 1.2795663 4.486915 4.9979921 4.486915 4.9979921s.442126 13.1130895 0 19.6409063c-.442125 6.5278168-2.335137 14.8365362-2.335137 14.8365362s-2.183159 2.9836594-3.738198 4.1834104c-1.555038 1.199751-9.319319 3.742382-9.319319 3.742382"/><path fill="#FFAAB2" d="M156.3130794 71.26077L135.14584 116.378626l10.1782513 4.793613 24.7202796-49.911469"/><path fill="#362D2C" d="M168.0561784 129.862741l9.581434 3.114577 27.3403436-63.8268331h-10.432618m-7.9644546 62.9496671l25.8303236-61.5346613h-4.699037l-25.8303239 61.5346613m10.2420676 0l26.7300433-61.5346613h-3.08745l-27.1785559 61.5346613m7.8413162-.664965l26.7093707-60.8696963h-1.849774l-27.1785554 61.5346613m13.4391744-4.944208l24.399401-56.8016774 8.187362 1.1666219s.392972 18.8021362 0 25.2828385c-.392972 6.4807023-4.700835 20.443264-4.700835 20.443264l-27.885928 9.908953z"/><g fill="#362D2C" transform="translate(176.36 139.434)"><ellipse cx="1.38058937" cy="1.50203794" rx="1.38058937" ry="1.50203794"/><ellipse cx="10.5845185" cy="1.50203794" rx="1.38058937" ry="1.50203794"/></g><g fill="#362D2C"><path d="M253.18892702 73.9176949l.44761295-55.17935868 2.840275-.4292934L255.129482 74.6706696"/><path d="M252.14809206 16.67987928l5.6383054-.4072909-.02741404 2.41978704-5.0023894-.2552291"/></g><g fill="#362D2C"><path d="M109.60763302 73.9176949l.44761295-55.17935868 2.840275-.4292934L111.548188 74.6706696"/><path d="M108.56679806 16.67987928l5.6383054-.4072909-.02741404 2.41978704-5.0023894-.2552291"/></g></g></svg>